<svg xmlns="http://www.w3.org/2000/svg" xmlns:xlink="http://www.w3.org/1999/xlink" width="2939pt" height="247pt" viewBox="0 0 2939 246.8"><g id="graph0" class="graph" transform="scale(1 1) rotate(0) translate(4 242.8)"><title>dependencies</title><polygon fill="#fff" stroke="transparent" points="-4 4 -4 -242.8 2935 -242.8 2935 4 -4 4"/><text x="1465.5" y="-8.2" font-family="sans-serif" font-size="14" text-anchor="middle">dependencies</text><g id="clust1" class="cluster"><title>cluster_AppModule</title><polygon fill="none" stroke="#000" stroke-dasharray="1 5" points="8 -32.8 8 -230.8 2923 -230.8 2923 -32.8 8 -32.8"/></g><g id="clust21" class="cluster"><title>cluster_AppModule_imports</title><polygon fill="none" stroke="#000" points="2541 -40.8 2541 -92.8 2915 -92.8 2915 -40.8 2541 -40.8"/></g><g id="clust23" class="cluster"><title>cluster_AppModule_bootstrap</title><polygon fill="none" stroke="#000" points="1471 -170.8 1471 -222.8 1595 -222.8 1595 -170.8 1471 -170.8"/></g><g id="clust2" class="cluster"><title>cluster_AppModule_declarations</title><polygon fill="none" stroke="#000" points="16 -40.8 16 -92.8 2533 -92.8 2533 -40.8 16 -40.8"/></g><g id="node1" class="node"><title>AlertsComponent</title><polygon fill="#ffffb3" stroke="#000" points="2524.55 -84.8 2409.45 -84.8 2409.45 -48.8 2524.55 -48.8 2524.55 -84.8"/><text x="2467" y="-62.6" font-family="Times,serif" font-size="14" text-anchor="middle">AlertsComponent</text></g><g id="node19" class="node"><title>AppModule</title><polygon fill="#8dd3c7" stroke="#000" points="1574.66 -149.8 1571.66 -153.8 1550.66 -153.8 1547.66 -149.8 1491.34 -149.8 1491.34 -113.8 1574.66 -113.8 1574.66 -149.8"/><text x="1533" y="-127.6" font-family="Times,serif" font-size="14" text-anchor="middle">AppModule</text></g><g id="edge1" class="edge"><title>AlertsComponent-&gt;AppModule</title><path fill="none" stroke="#000" d="M2467,-84.83C2467,-105.57 2467,-136.8 2467,-136.8 2467,-136.8 1584.95,-136.8 1584.95,-136.8"/><polygon fill="#000" stroke="#000" points="1584.95 -133.3 1574.95 -136.8 1584.95 -140.3 1584.95 -133.3"/></g><g id="node2" class="node"><title>AppComponent</title><polygon fill="#ffffb3" stroke="#000" points="2391.94 -84.8 2286.06 -84.8 2286.06 -48.8 2391.94 -48.8 2391.94 -84.8"/><text x="2339" y="-62.6" font-family="Times,serif" font-size="14" text-anchor="middle">AppComponent</text></g><g id="edge2" class="edge"><title>AppComponent-&gt;AppModule</title><path fill="none" stroke="#000" d="M2339,-85.11C2339,-104.95 2339,-133.8 2339,-133.8 2339,-133.8 1584.92,-133.8 1584.92,-133.8"/><polygon fill="#000" stroke="#000" points="1584.92 -130.3 1574.92 -133.8 1584.92 -137.3 1584.92 -130.3"/></g><g id="node3" class="node"><title>ColorEditor</title><polygon fill="#ffffb3" stroke="#000" points="2268.38 -84.8 2185.62 -84.8 2185.62 -48.8 2268.38 -48.8 2268.38 -84.8"/><text x="2227" y="-62.6" font-family="Times,serif" font-size="14" text-anchor="middle">ColorEditor</text></g><g id="edge3" class="edge"><title>ColorEditor-&gt;AppModule</title><path fill="none" stroke="#000" d="M2227,-84.97C2227,-103.89 2227,-130.8 2227,-130.8 2227,-130.8 1584.85,-130.8 1584.85,-130.8"/><polygon fill="#000" stroke="#000" points="1584.85 -127.3 1574.85 -130.8 1584.85 -134.3 1584.85 -127.3"/></g><g id="node4" class="node"><title>EntryComponent</title><polygon fill="#ffffb3" stroke="#000" points="2167.44 -84.8 2054.56 -84.8 2054.56 -48.8 2167.44 -48.8 2167.44 -84.8"/><text x="2111" y="-62.6" font-family="Times,serif" font-size="14" text-anchor="middle">EntryComponent</text></g><g id="edge4" class="edge"><title>EntryComponent-&gt;AppModule</title><path fill="none" stroke="#000" d="M2111,-85.1C2111,-103.07 2111,-127.8 2111,-127.8 2111,-127.8 1585.03,-127.8 1585.03,-127.8"/><polygon fill="#000" stroke="#000" points="1585.03 -124.3 1575.03 -127.8 1585.03 -131.3 1585.03 -124.3"/></g><g id="node5" class="node"><title>FieldReportsComponent</title><polygon fill="#ffffb3" stroke="#000" points="2036.66 -84.8 1883.34 -84.8 1883.34 -48.8 2036.66 -48.8 2036.66 -84.8"/><text x="1960" y="-62.6" font-family="Times,serif" font-size="14" text-anchor="middle">FieldReportsComponent</text></g><g id="edge5" class="edge"><title>FieldReportsComponent-&gt;AppModule</title><path fill="none" stroke="#000" d="M1960,-84.84C1960,-101.53 1960,-123.8 1960,-123.8 1960,-123.8 1584.72,-123.8 1584.72,-123.8"/><polygon fill="#000" stroke="#000" points="1584.72 -120.3 1574.72 -123.8 1584.72 -127.3 1584.72 -120.3"/></g><g id="node6" class="node"><title>FooterComponent</title><polygon fill="#ffffb3" stroke="#000" points="1864.88 -84.8 1747.12 -84.8 1747.12 -48.8 1864.88 -48.8 1864.88 -84.8"/><text x="1806" y="-62.6" font-family="Times,serif" font-size="14" text-anchor="middle">FooterComponent</text></g><g id="edge6" class="edge"><title>FooterComponent-&gt;AppModule</title><path fill="none" stroke="#000" d="M1806,-85.08C1806,-100.75 1806,-120.8 1806,-120.8 1806,-120.8 1584.76,-120.8 1584.76,-120.8"/><polygon fill="#000" stroke="#000" points="1584.76 -117.3 1574.76 -120.8 1584.76 -124.3 1584.76 -117.3"/></g><g id="node7" class="node"><title>HeaderComponent</title><polygon fill="#ffffb3" stroke="#000" points="1728.75 -84.8 1607.25 -84.8 1607.25 -48.8 1728.75 -48.8 1728.75 -84.8"/><text x="1668" y="-62.6" font-family="Times,serif" font-size="14" text-anchor="middle">HeaderComponent</text></g><g id="edge7" class="edge"><title>HeaderComponent-&gt;AppModule</title><path fill="none" stroke="#000" d="M1668,-84.92C1668,-99.58 1668,-117.8 1668,-117.8 1668,-117.8 1584.97,-117.8 1584.97,-117.8"/><polygon fill="#000" stroke="#000" points="1584.97 -114.3 1574.97 -117.8 1584.97 -121.3 1584.97 -114.3"/></g><g id="node8" class="node"><title>IconsComponent</title><polygon fill="#ffffb3" stroke="#000" points="1588.66 -84.8 1477.34 -84.8 1477.34 -48.8 1588.66 -48.8 1588.66 -84.8"/><text x="1533" y="-62.6" font-family="Times,serif" font-size="14" text-anchor="middle">IconsComponent</text></g><g id="edge8" class="edge"><title>IconsComponent-&gt;AppModule</title><path fill="none" stroke="#000" d="M1533,-84.91C1533,-84.91 1533,-103.79 1533,-103.79"/><polygon fill="#000" stroke="#000" points="1529.5 -103.79 1533 -113.79 1536.5 -103.79 1529.5 -103.79"/></g><g id="node9" class="node"><title>LmapComponent</title><polygon fill="#ffffb3" stroke="#000" points="1458.99 -84.8 1345.01 -84.8 1345.01 -48.8 1458.99 -48.8 1458.99 -84.8"/><text x="1402" y="-62.6" font-family="Times,serif" font-size="14" text-anchor="middle">LmapComponent</text></g><g id="edge9" class="edge"><title>LmapComponent-&gt;AppModule</title><path fill="none" stroke="#000" d="M1402,-84.92C1402,-99.58 1402,-117.8 1402,-117.8 1402,-117.8 1481.19,-117.8 1481.19,-117.8"/><polygon fill="#000" stroke="#000" points="1481.19 -121.3 1491.19 -117.8 1481.19 -114.3 1481.19 -121.3"/></g><g id="node10" class="node"><title>LocationComponent</title><polygon fill="#ffffb3" stroke="#000" points="1326.59 -84.8 1195.41 -84.8 1195.41 -48.8 1326.59 -48.8 1326.59 -84.8"/><text x="1261" y="-62.6" font-family="Times,serif" font-size="14" text-anchor="middle">LocationComponent</text></g><g id="edge10" class="edge"><title>LocationComponent-&gt;AppModule</title><path fill="none" stroke="#000" d="M1261,-85.08C1261,-100.75 1261,-120.8 1261,-120.8 1261,-120.8 1481.1,-120.8 1481.1,-120.8"/><polygon fill="#000" stroke="#000" points="1481.1 -124.3 1491.1 -120.8 1481.1 -117.3 1481.1 -124.3"/></g><g id="node11" class="node"><title>LogComponent</title><polygon fill="#ffffb3" stroke="#000" points="1177.88 -84.8 1074.12 -84.8 1074.12 -48.8 1177.88 -48.8 1177.88 -84.8"/><text x="1126" y="-62.6" font-family="Times,serif" font-size="14" text-anchor="middle">LogComponent</text></g><g id="edge11" class="edge"><title>LogComponent-&gt;AppModule</title><path fill="none" stroke="#000" d="M1126,-84.84C1126,-101.53 1126,-123.8 1126,-123.8 1126,-123.8 1480.98,-123.8 1480.98,-123.8"/><polygon fill="#000" stroke="#000" points="1480.98 -127.3 1490.98 -123.8 1480.98 -120.3 1480.98 -127.3"/></g><g id="node12" class="node"><title>MiniGMapComponent</title><polygon fill="#ffffb3" stroke="#000" points="1056.33 -84.8 911.67 -84.8 911.67 -48.8 1056.33 -48.8 1056.33 -84.8"/><text x="984" y="-62.6" font-family="Times,serif" font-size="14" text-anchor="middle">MiniGMapComponent</text></g><g id="edge12" class="edge"><title>MiniGMapComponent-&gt;AppModule</title><path fill="none" stroke="#000" d="M984,-85.1C984,-103.07 984,-127.8 984,-127.8 984,-127.8 1481.29,-127.8 1481.29,-127.8"/><polygon fill="#000" stroke="#000" points="1481.29 -131.3 1491.29 -127.8 1481.29 -124.3 1481.29 -131.3"/></g><g id="node13" class="node"><title>MiniLMapComponent</title><polygon fill="#ffffb3" stroke="#000" points="893.27 -84.8 750.73 -84.8 750.73 -48.8 893.27 -48.8 893.27 -84.8"/><text x="822" y="-62.6" font-family="Times,serif" font-size="14" text-anchor="middle">MiniLMapComponent</text></g><g id="edge13" class="edge"><title>MiniLMapComponent-&gt;AppModule</title><path fill="none" stroke="#000" d="M822,-84.97C822,-103.89 822,-130.8 822,-130.8 822,-130.8 1481.18,-130.8 1481.18,-130.8"/><polygon fill="#000" stroke="#000" points="1481.18 -134.3 1491.18 -130.8 1481.18 -127.3 1481.18 -134.3"/></g><g id="node14" class="node"><title>NavbarComponent</title><polygon fill="#ffffb3" stroke="#000" points="732.03 -84.8 609.97 -84.8 609.97 -48.8 732.03 -48.8 732.03 -84.8"/><text x="671" y="-62.6" font-family="Times,serif" font-size="14" text-anchor="middle">NavbarComponent</text></g><g id="edge14" class="edge"><title>NavbarComponent-&gt;AppModule</title><path fill="none" stroke="#000" d="M671,-85.11C671,-104.95 671,-133.8 671,-133.8 671,-133.8 1481.13,-133.8 1481.13,-133.8"/><polygon fill="#000" stroke="#000" points="1481.13 -137.3 1491.13 -133.8 1481.13 -130.3 1481.13 -137.3"/></g><g id="node15" class="node"><title>RangersComponent</title><polygon fill="#ffffb3" stroke="#000" points="591.71 -84.8 464.29 -84.8 464.29 -48.8 591.71 -48.8 591.71 -84.8"/><text x="528" y="-62.6" font-family="Times,serif" font-size="14" text-anchor="middle">RangersComponent</text></g><g id="edge15" class="edge"><title>RangersComponent-&gt;AppModule</title><path fill="none" stroke="#000" d="M528,-84.83C528,-105.57 528,-136.8 528,-136.8 528,-136.8 1481.1,-136.8 1481.1,-136.8"/><polygon fill="#000" stroke="#000" points="1481.1 -140.3 1491.1 -136.8 1481.1 -133.3 1481.1 -140.3"/></g><g id="node16" class="node"><title>SettingsComponent</title><polygon fill="#ffffb3" stroke="#000" points="446.45 -84.8 319.55 -84.8 319.55 -48.8 446.45 -48.8 446.45 -84.8"/><text x="383" y="-62.6" font-family="Times,serif" font-size="14" text-anchor="middle">SettingsComponent</text></g><g id="edge16" class="edge"><title>SettingsComponent-&gt;AppModule</title><path fill="none" stroke="#000" d="M383,-85.09C383,-107.01 383,-140.8 383,-140.8 383,-140.8 1481.05,-140.8 1481.05,-140.8"/><polygon fill="#000" stroke="#000" points="1481.05 -144.3 1491.05 -140.8 1481.05 -137.3 1481.05 -144.3"/></g><g id="node17" class="node"><title>TimePickerComponent</title><polygon fill="#ffffb3" stroke="#000" points="301.14 -84.8 154.86 -84.8 154.86 -48.8 301.14 -48.8 301.14 -84.8"/><text x="228" y="-62.6" font-family="Times,serif" font-size="14" text-anchor="middle">TimePickerComponent</text></g><g id="edge17" class="edge"><title>TimePickerComponent-&gt;AppModule</title><path fill="none" stroke="#000" d="M228,-85.05C228,-107.82 228,-143.8 228,-143.8 228,-143.8 1481.06,-143.8 1481.06,-143.8"/><polygon fill="#000" stroke="#000" points="1481.06 -147.3 1491.06 -143.8 1481.06 -140.3 1481.06 -147.3"/></g><g id="node18" class="node"><title>X404Component</title><polygon fill="#ffffb3" stroke="#000" points="136.44 -84.8 23.56 -84.8 23.56 -48.8 136.44 -48.8 136.44 -84.8"/><text x="80" y="-62.6" font-family="Times,serif" font-size="14" text-anchor="middle">X404Component</text></g><g id="edge18" class="edge"><title>X404Component-&gt;AppModule</title><path fill="none" stroke="#000" d="M80,-84.95C80,-108.56 80,-146.8 80,-146.8 80,-146.8 1481.08,-146.8 1481.08,-146.8"/><polygon fill="#000" stroke="#000" points="1481.08 -150.3 1491.08 -146.8 1481.08 -143.3 1481.08 -150.3"/></g><g id="node23" class="node"><title>AppComponent</title><polygon fill="#80b1d3" stroke="#000" points="1587.44 -214.8 1478.56 -214.8 1478.56 -178.8 1587.44 -178.8 1587.44 -214.8"/><text x="1533" y="-192.6" font-family="Times,serif" font-size="14" text-anchor="middle">AppComponent</text></g><g id="edge22" class="edge"><title>AppModule-&gt;AppComponent</title><path fill="none" stroke="#000" stroke-dasharray="1 5" d="M1533,-149.91C1533,-149.91 1533,-168.79 1533,-168.79"/><polygon fill="#000" stroke="#000" points="1529.5 -168.79 1533 -178.79 1536.5 -168.79 1529.5 -168.79"/></g><g id="node20" class="node"><title>AppRoutingModule</title><polygon fill="#8dd3c7" stroke="#000" points="2907.28 -84.8 2904.28 -88.8 2883.28 -88.8 2880.28 -84.8 2778.72 -84.8 2778.72 -48.8 2907.28 -48.8 2907.28 -84.8"/><text x="2843" y="-62.6" font-family="Times,serif" font-size="14" text-anchor="middle">AppRoutingModule</text></g><g id="edge19" class="edge"><title>AppRoutingModule-&gt;AppModule</title><path fill="none" stroke="#000" d="M2843,-84.95C2843,-108.56 2843,-146.8 2843,-146.8 2843,-146.8 1584.74,-146.8 1584.74,-146.8"/><polygon fill="#000" stroke="#000" points="1584.74 -143.3 1574.74 -146.8 1584.74 -150.3 1584.74 -143.3"/></g><g id="node21" class="node"><title>LazyModule</title><polygon fill="#8dd3c7" stroke="#000" points="2760.53 -84.8 2757.53 -88.8 2736.53 -88.8 2733.53 -84.8 2673.47 -84.8 2673.47 -48.8 2760.53 -48.8 2760.53 -84.8"/><text x="2717" y="-62.6" font-family="Times,serif" font-size="14" text-anchor="middle">LazyModule</text></g><g id="edge20" class="edge"><title>LazyModule-&gt;AppModule</title><path fill="none" stroke="#000" d="M2717,-85.05C2717,-107.82 2717,-143.8 2717,-143.8 2717,-143.8 1584.79,-143.8 1584.79,-143.8"/><polygon fill="#000" stroke="#000" points="1584.79 -140.3 1574.79 -143.8 1584.79 -147.3 1584.79 -140.3"/></g><g id="node22" class="node"><title>MaterialModule</title><polygon fill="#8dd3c7" stroke="#000" points="2655.47 -84.8 2652.47 -88.8 2631.47 -88.8 2628.47 -84.8 2548.53 -84.8 2548.53 -48.8 2655.47 -48.8 2655.47 -84.8"/><text x="2602" y="-62.6" font-family="Times,serif" font-size="14" text-anchor="middle">MaterialModule</text></g><g id="edge21" class="edge"><title>MaterialModule-&gt;AppModule</title><path fill="none" stroke="#000" d="M2602,-85.09C2602,-107.01 2602,-140.8 2602,-140.8 2602,-140.8 1584.91,-140.8 1584.91,-140.8"/><polygon fill="#000" stroke="#000" points="1584.91 -137.3 1574.91 -140.8 1584.91 -144.3 1584.91 -137.3"/></g></g></svg>