<svg xmlns="http://www.w3.org/2000/svg" xmlns:xlink="http://www.w3.org/1999/xlink" width="3487pt" height="247pt" viewBox="0 0 3487 246.8"><g id="graph0" class="graph" transform="scale(1 1) rotate(0) translate(4 242.8)"><title>dependencies</title><polygon fill="#fff" stroke="transparent" points="-4 4 -4 -242.8 3483 -242.8 3483 4 -4 4"/><text x="1739.5" y="-8.2" font-family="sans-serif" font-size="14" text-anchor="middle">dependencies</text><g id="clust1" class="cluster"><title>cluster_AppModule</title><polygon fill="none" stroke="#000" stroke-dasharray="1 5" points="8 -32.8 8 -230.8 3471 -230.8 3471 -32.8 8 -32.8"/></g><g id="clust21" class="cluster"><title>cluster_AppModule_providers</title><polygon fill="none" stroke="#000" points="2370 -40.8 2370 -92.8 3463 -92.8 3463 -40.8 2370 -40.8"/></g><g id="clust18" class="cluster"><title>cluster_AppModule_imports</title><polygon fill="none" stroke="#000" points="1988 -40.8 1988 -92.8 2362 -92.8 2362 -40.8 1988 -40.8"/></g><g id="clust2" class="cluster"><title>cluster_AppModule_declarations</title><polygon fill="none" stroke="#000" points="16 -40.8 16 -92.8 1980 -92.8 1980 -40.8 16 -40.8"/></g><g id="clust20" class="cluster"><title>cluster_AppModule_bootstrap</title><polygon fill="none" stroke="#000" points="1612 -170.8 1612 -222.8 1736 -222.8 1736 -170.8 1612 -170.8"/></g><g id="node1" class="node"><title>AlertsComponent</title><polygon fill="#ffffb3" stroke="#000" points="1971.54 -84.8 1856.46 -84.8 1856.46 -48.8 1971.54 -48.8 1971.54 -84.8"/><text x="1914" y="-62.6" font-family="Times,serif" font-size="14" text-anchor="middle">AlertsComponent</text></g><g id="node16" class="node"><title>AppModule</title><polygon fill="#8dd3c7" stroke="#000" points="1715.66 -149.8 1712.66 -153.8 1691.66 -153.8 1688.66 -149.8 1632.34 -149.8 1632.34 -113.8 1715.66 -113.8 1715.66 -149.8"/><text x="1674" y="-127.6" font-family="Times,serif" font-size="14" text-anchor="middle">AppModule</text></g><g id="edge1" class="edge"><title>AlertsComponent-&gt;AppModule</title><path fill="none" stroke="#000" d="M1914,-85.04C1914,-100.37 1914,-119.8 1914,-119.8 1914,-119.8 1725.8,-119.8 1725.8,-119.8"/><polygon fill="#000" stroke="#000" points="1725.8 -116.3 1715.8 -119.8 1725.8 -123.3 1725.8 -116.3"/></g><g id="node2" class="node"><title>AppComponent</title><polygon fill="#ffffb3" stroke="#000" points="1838.94 -84.8 1733.06 -84.8 1733.06 -48.8 1838.94 -48.8 1838.94 -84.8"/><text x="1786" y="-62.6" font-family="Times,serif" font-size="14" text-anchor="middle">AppComponent</text></g><g id="edge2" class="edge"><title>AppComponent-&gt;AppModule</title><path fill="none" stroke="#000" d="M1786,-84.85C1786,-99.17 1786,-116.8 1786,-116.8 1786,-116.8 1725.7,-116.8 1725.7,-116.8"/><polygon fill="#000" stroke="#000" points="1725.7 -113.3 1715.7 -116.8 1725.7 -120.3 1725.7 -113.3"/></g><g id="node3" class="node"><title>ColorEditor</title><polygon fill="#ffffb3" stroke="#000" points="1715.38 -84.8 1632.62 -84.8 1632.62 -48.8 1715.38 -48.8 1715.38 -84.8"/><text x="1674" y="-62.6" font-family="Times,serif" font-size="14" text-anchor="middle">ColorEditor</text></g><g id="edge3" class="edge"><title>ColorEditor-&gt;AppModule</title><path fill="none" stroke="#000" d="M1674,-84.91C1674,-84.91 1674,-103.79 1674,-103.79"/><polygon fill="#000" stroke="#000" points="1670.5 -103.79 1674 -113.79 1677.5 -103.79 1670.5 -103.79"/></g><g id="node4" class="node"><title>EntryComponent</title><polygon fill="#ffffb3" stroke="#000" points="1614.44 -84.8 1501.56 -84.8 1501.56 -48.8 1614.44 -48.8 1614.44 -84.8"/><text x="1558" y="-62.6" font-family="Times,serif" font-size="14" text-anchor="middle">EntryComponent</text></g><g id="edge4" class="edge"><title>EntryComponent-&gt;AppModule</title><path fill="none" stroke="#000" d="M1558,-84.85C1558,-99.17 1558,-116.8 1558,-116.8 1558,-116.8 1622.12,-116.8 1622.12,-116.8"/><polygon fill="#000" stroke="#000" points="1622.12 -120.3 1632.12 -116.8 1622.12 -113.3 1622.12 -120.3"/></g><g id="node5" class="node"><title>FieldReportsComponent</title><polygon fill="#ffffb3" stroke="#000" points="1483.66 -84.8 1330.34 -84.8 1330.34 -48.8 1483.66 -48.8 1483.66 -84.8"/><text x="1407" y="-62.6" font-family="Times,serif" font-size="14" text-anchor="middle">FieldReportsComponent</text></g><g id="edge5" class="edge"><title>FieldReportsComponent-&gt;AppModule</title><path fill="none" stroke="#000" d="M1407,-85.04C1407,-100.37 1407,-119.8 1407,-119.8 1407,-119.8 1622.28,-119.8 1622.28,-119.8"/><polygon fill="#000" stroke="#000" points="1622.28 -123.3 1632.28 -119.8 1622.28 -116.3 1622.28 -123.3"/></g><g id="node6" class="node"><title>FooterComponent</title><polygon fill="#ffffb3" stroke="#000" points="1311.88 -84.8 1194.12 -84.8 1194.12 -48.8 1311.88 -48.8 1311.88 -84.8"/><text x="1253" y="-62.6" font-family="Times,serif" font-size="14" text-anchor="middle">FooterComponent</text></g><g id="edge6" class="edge"><title>FooterComponent-&gt;AppModule</title><path fill="none" stroke="#000" d="M1253,-84.83C1253,-101.2 1253,-122.8 1253,-122.8 1253,-122.8 1622.09,-122.8 1622.09,-122.8"/><polygon fill="#000" stroke="#000" points="1622.09 -126.3 1632.09 -122.8 1622.09 -119.3 1622.09 -126.3"/></g><g id="node7" class="node"><title>GmapComponent</title><polygon fill="#ffffb3" stroke="#000" points="1175.55 -84.8 1060.45 -84.8 1060.45 -48.8 1175.55 -48.8 1175.55 -84.8"/><text x="1118" y="-62.6" font-family="Times,serif" font-size="14" text-anchor="middle">GmapComponent</text></g><g id="edge7" class="edge"><title>GmapComponent-&gt;AppModule</title><path fill="none" stroke="#000" d="M1118,-84.82C1118,-102.17 1118,-125.8 1118,-125.8 1118,-125.8 1622.21,-125.8 1622.21,-125.8"/><polygon fill="#000" stroke="#000" points="1622.21 -129.3 1632.21 -125.8 1622.21 -122.3 1622.21 -129.3"/></g><g id="node8" class="node"><title>LmapComponent</title><polygon fill="#ffffb3" stroke="#000" points="1041.99 -84.8 928.01 -84.8 928.01 -48.8 1041.99 -48.8 1041.99 -84.8"/><text x="985" y="-62.6" font-family="Times,serif" font-size="14" text-anchor="middle">LmapComponent</text></g><g id="edge8" class="edge"><title>LmapComponent-&gt;AppModule</title><path fill="none" stroke="#000" d="M985,-85.1C985,-103.07 985,-127.8 985,-127.8 985,-127.8 1622.19,-127.8 1622.19,-127.8"/><polygon fill="#000" stroke="#000" points="1622.19 -131.3 1632.19 -127.8 1622.19 -124.3 1622.19 -131.3"/></g><g id="node9" class="node"><title>LogComponent</title><polygon fill="#ffffb3" stroke="#000" points="909.89 -84.8 806.11 -84.8 806.11 -48.8 909.89 -48.8 909.89 -84.8"/><text x="858" y="-62.6" font-family="Times,serif" font-size="14" text-anchor="middle">LogComponent</text></g><g id="edge9" class="edge"><title>LogComponent-&gt;AppModule</title><path fill="none" stroke="#000" d="M858,-84.97C858,-103.89 858,-130.8 858,-130.8 858,-130.8 1622.13,-130.8 1622.13,-130.8"/><polygon fill="#000" stroke="#000" points="1622.13 -134.3 1632.13 -130.8 1622.13 -127.3 1622.13 -134.3"/></g><g id="node10" class="node"><title>MoodEditor</title><polygon fill="#ffffb3" stroke="#000" points="788.44 -84.8 703.56 -84.8 703.56 -48.8 788.44 -48.8 788.44 -84.8"/><text x="746" y="-62.6" font-family="Times,serif" font-size="14" text-anchor="middle">MoodEditor</text></g><g id="edge10" class="edge"><title>MoodEditor-&gt;AppModule</title><path fill="none" stroke="#000" d="M746,-85.11C746,-104.95 746,-133.8 746,-133.8 746,-133.8 1622.32,-133.8 1622.32,-133.8"/><polygon fill="#000" stroke="#000" points="1622.32 -137.3 1632.32 -133.8 1622.32 -130.3 1622.32 -137.3"/></g><g id="node11" class="node"><title>MoodRenderer</title><polygon fill="#ffffb3" stroke="#000" points="685.25 -84.8 584.75 -84.8 584.75 -48.8 685.25 -48.8 685.25 -84.8"/><text x="635" y="-62.6" font-family="Times,serif" font-size="14" text-anchor="middle">MoodRenderer</text></g><g id="edge11" class="edge"><title>MoodRenderer-&gt;AppModule</title><path fill="none" stroke="#000" d="M635,-84.83C635,-105.57 635,-136.8 635,-136.8 635,-136.8 1622.31,-136.8 1622.31,-136.8"/><polygon fill="#000" stroke="#000" points="1622.31 -140.3 1632.31 -136.8 1622.31 -133.3 1622.31 -140.3"/></g><g id="node12" class="node"><title>NavbarComponent</title><polygon fill="#ffffb3" stroke="#000" points="566.03 -84.8 443.97 -84.8 443.97 -48.8 566.03 -48.8 566.03 -84.8"/><text x="505" y="-62.6" font-family="Times,serif" font-size="14" text-anchor="middle">NavbarComponent</text></g><g id="edge12" class="edge"><title>NavbarComponent-&gt;AppModule</title><path fill="none" stroke="#000" d="M505,-84.97C505,-106.3 505,-138.8 505,-138.8 505,-138.8 1622.05,-138.8 1622.05,-138.8"/><polygon fill="#000" stroke="#000" points="1622.05 -142.3 1632.05 -138.8 1622.05 -135.3 1622.05 -142.3"/></g><g id="node13" class="node"><title>RangersComponent</title><polygon fill="#ffffb3" stroke="#000" points="425.7 -84.8 298.3 -84.8 298.3 -48.8 425.7 -48.8 425.7 -84.8"/><text x="362" y="-62.6" font-family="Times,serif" font-size="14" text-anchor="middle">RangersComponent</text></g><g id="edge13" class="edge"><title>RangersComponent-&gt;AppModule</title><path fill="none" stroke="#000" d="M362,-84.96C362,-107.15 362,-141.8 362,-141.8 362,-141.8 1622.2,-141.8 1622.2,-141.8"/><polygon fill="#000" stroke="#000" points="1622.2 -145.3 1632.2 -141.8 1622.2 -138.3 1622.2 -145.3"/></g><g id="node14" class="node"><title>SettingsComponent</title><polygon fill="#ffffb3" stroke="#000" points="280.45 -84.8 153.55 -84.8 153.55 -48.8 280.45 -48.8 280.45 -84.8"/><text x="217" y="-62.6" font-family="Times,serif" font-size="14" text-anchor="middle">SettingsComponent</text></g><g id="edge14" class="edge"><title>SettingsComponent-&gt;AppModule</title><path fill="none" stroke="#000" d="M217,-84.89C217,-107.93 217,-144.8 217,-144.8 217,-144.8 1621.97,-144.8 1621.97,-144.8"/><polygon fill="#000" stroke="#000" points="1621.97 -148.3 1631.97 -144.8 1621.97 -141.3 1621.97 -148.3"/></g><g id="node15" class="node"><title>X404Component</title><polygon fill="#ffffb3" stroke="#000" points="136.44 -84.8 23.56 -84.8 23.56 -48.8 136.44 -48.8 136.44 -84.8"/><text x="80" y="-62.6" font-family="Times,serif" font-size="14" text-anchor="middle">X404Component</text></g><g id="edge15" class="edge"><title>X404Component-&gt;AppModule</title><path fill="none" stroke="#000" d="M80,-85.18C80,-109.08 80,-147.8 80,-147.8 80,-147.8 1622.18,-147.8 1622.18,-147.8"/><polygon fill="#000" stroke="#000" points="1622.18 -151.3 1632.18 -147.8 1622.18 -144.3 1622.18 -151.3"/></g><g id="node20" class="node"><title>AppComponent</title><polygon fill="#80b1d3" stroke="#000" points="1728.44 -214.8 1619.56 -214.8 1619.56 -178.8 1728.44 -178.8 1728.44 -214.8"/><text x="1674" y="-192.6" font-family="Times,serif" font-size="14" text-anchor="middle">AppComponent</text></g><g id="edge19" class="edge"><title>AppModule-&gt;AppComponent</title><path fill="none" stroke="#000" stroke-dasharray="1 5" d="M1674,-149.91C1674,-149.91 1674,-168.79 1674,-168.79"/><polygon fill="#000" stroke="#000" points="1670.5 -168.79 1674 -178.79 1677.5 -168.79 1670.5 -168.79"/></g><g id="node17" class="node"><title>AppRoutingModule</title><polygon fill="#8dd3c7" stroke="#000" points="2354.27 -84.8 2351.27 -88.8 2330.27 -88.8 2327.27 -84.8 2225.73 -84.8 2225.73 -48.8 2354.27 -48.8 2354.27 -84.8"/><text x="2290" y="-62.6" font-family="Times,serif" font-size="14" text-anchor="middle">AppRoutingModule</text></g><g id="edge16" class="edge"><title>AppRoutingModule-&gt;AppModule</title><path fill="none" stroke="#000" d="M2290,-85.1C2290,-103.07 2290,-127.8 2290,-127.8 2290,-127.8 1725.86,-127.8 1725.86,-127.8"/><polygon fill="#000" stroke="#000" points="1725.86 -124.3 1715.86 -127.8 1725.86 -131.3 1725.86 -124.3"/></g><g id="node18" class="node"><title>LazyModule</title><polygon fill="#8dd3c7" stroke="#000" points="2207.53 -84.8 2204.53 -88.8 2183.53 -88.8 2180.53 -84.8 2120.47 -84.8 2120.47 -48.8 2207.53 -48.8 2207.53 -84.8"/><text x="2164" y="-62.6" font-family="Times,serif" font-size="14" text-anchor="middle">LazyModule</text></g><g id="edge17" class="edge"><title>LazyModule-&gt;AppModule</title><path fill="none" stroke="#000" d="M2164,-84.82C2164,-102.17 2164,-125.8 2164,-125.8 2164,-125.8 1725.78,-125.8 1725.78,-125.8"/><polygon fill="#000" stroke="#000" points="1725.78 -122.3 1715.78 -125.8 1725.78 -129.3 1725.78 -122.3"/></g><g id="node19" class="node"><title>MaterialModule</title><polygon fill="#8dd3c7" stroke="#000" points="2102.47 -84.8 2099.47 -88.8 2078.47 -88.8 2075.47 -84.8 1995.53 -84.8 1995.53 -48.8 2102.47 -48.8 2102.47 -84.8"/><text x="2049" y="-62.6" font-family="Times,serif" font-size="14" text-anchor="middle">MaterialModule</text></g><g id="edge18" class="edge"><title>MaterialModule-&gt;AppModule</title><path fill="none" stroke="#000" d="M2049,-84.83C2049,-101.2 2049,-122.8 2049,-122.8 2049,-122.8 1725.93,-122.8 1725.93,-122.8"/><polygon fill="#000" stroke="#000" points="1725.93 -119.3 1715.93 -122.8 1725.93 -126.3 1725.93 -119.3"/></g><g id="node21" class="node"><title>FieldReportService</title><ellipse cx="3369" cy="-66.8" fill="#fdb462" stroke="#000" rx="86.25" ry="18"/><text x="3369" y="-62.6" font-family="Times,serif" font-size="14" text-anchor="middle">FieldReportService</text></g><g id="edge20" class="edge"><title>FieldReportService-&gt;AppModule</title><path fill="none" stroke="#000" d="M3369,-85.18C3369,-109.08 3369,-147.8 3369,-147.8 3369,-147.8 1725.9,-147.8 1725.9,-147.8"/><polygon fill="#000" stroke="#000" points="1725.9 -144.3 1715.9 -147.8 1725.9 -151.3 1725.9 -144.3"/></g><g id="node22" class="node"><title>MarkerService</title><ellipse cx="3196" cy="-66.8" fill="#fdb462" stroke="#000" rx="68.32" ry="18"/><text x="3196" y="-62.6" font-family="Times,serif" font-size="14" text-anchor="middle">MarkerService</text></g><g id="edge21" class="edge"><title>MarkerService-&gt;AppModule</title><path fill="none" stroke="#000" d="M3196,-84.89C3196,-107.93 3196,-144.8 3196,-144.8 3196,-144.8 1725.9,-144.8 1725.9,-144.8"/><polygon fill="#000" stroke="#000" points="1725.9 -141.3 1715.9 -144.8 1725.9 -148.3 1725.9 -141.3"/></g><g id="node23" class="node"><title>PopupService</title><ellipse cx="3045" cy="-66.8" fill="#fdb462" stroke="#000" rx="64.85" ry="18"/><text x="3045" y="-62.6" font-family="Times,serif" font-size="14" text-anchor="middle">PopupService</text></g><g id="edge22" class="edge"><title>PopupService-&gt;AppModule</title><path fill="none" stroke="#000" d="M3045,-84.96C3045,-107.15 3045,-141.8 3045,-141.8 3045,-141.8 1725.78,-141.8 1725.78,-141.8"/><polygon fill="#000" stroke="#000" points="1725.78 -138.3 1715.78 -141.8 1725.78 -145.3 1725.78 -138.3"/></g><g id="node24" class="node"><title>RangerService</title><ellipse cx="2894" cy="-66.8" fill="#fdb462" stroke="#000" rx="67.75" ry="18"/><text x="2894" y="-62.6" font-family="Times,serif" font-size="14" text-anchor="middle">RangerService</text></g><g id="edge23" class="edge"><title>RangerService-&gt;AppModule</title><path fill="none" stroke="#000" d="M2894,-84.97C2894,-106.3 2894,-138.8 2894,-138.8 2894,-138.8 1726,-138.8 1726,-138.8"/><polygon fill="#000" stroke="#000" points="1726 -135.3 1716 -138.8 1726 -142.3 1726 -135.3"/></g><g id="node25" class="node"><title>SettingsService</title><ellipse cx="2737" cy="-66.8" fill="#fdb462" stroke="#000" rx="71.22" ry="18"/><text x="2737" y="-62.6" font-family="Times,serif" font-size="14" text-anchor="middle">SettingsService</text></g><g id="edge24" class="edge"><title>SettingsService-&gt;AppModule</title><path fill="none" stroke="#000" d="M2737,-84.83C2737,-105.57 2737,-136.8 2737,-136.8 2737,-136.8 1725.67,-136.8 1725.67,-136.8"/><polygon fill="#000" stroke="#000" points="1725.67 -133.3 1715.67 -136.8 1725.67 -140.3 1725.67 -133.3"/></g><g id="node26" class="node"><title>ShapeService</title><ellipse cx="2584" cy="-66.8" fill="#fdb462" stroke="#000" rx="63.68" ry="18"/><text x="2584" y="-62.6" font-family="Times,serif" font-size="14" text-anchor="middle">ShapeService</text></g><g id="edge25" class="edge"><title>ShapeService-&gt;AppModule</title><path fill="none" stroke="#000" d="M2584,-85.11C2584,-104.95 2584,-133.8 2584,-133.8 2584,-133.8 1725.77,-133.8 1725.77,-133.8"/><polygon fill="#000" stroke="#000" points="1725.77 -130.3 1715.77 -133.8 1725.77 -137.3 1725.77 -130.3"/></g><g id="node27" class="node"><title>TeamService</title><ellipse cx="2440" cy="-66.8" fill="#fdb462" stroke="#000" rx="61.95" ry="18"/><text x="2440" y="-62.6" font-family="Times,serif" font-size="14" text-anchor="middle">TeamService</text></g><g id="edge26" class="edge"><title>TeamService-&gt;AppModule</title><path fill="none" stroke="#000" d="M2440,-84.97C2440,-103.89 2440,-130.8 2440,-130.8 2440,-130.8 1725.73,-130.8 1725.73,-130.8"/><polygon fill="#000" stroke="#000" points="1725.73 -127.3 1715.73 -130.8 1725.73 -134.3 1725.73 -127.3"/></g></g></svg>