<?xml version="1.0" encoding="UTF-8" standalone="no"?>
<!DOCTYPE svg PUBLIC "-//W3C//DTD SVG 1.1//EN"
 "http://www.w3.org/Graphics/SVG/1.1/DTD/svg11.dtd">
<!-- Generated by graphviz version 5.0.0 (20220707.1540)
 -->
<!-- Title: dependencies Pages: 1 -->
<svg width="3161pt" height="247pt"
 viewBox="0.00 0.00 3161.00 246.80" xmlns="http://www.w3.org/2000/svg" xmlns:xlink="http://www.w3.org/1999/xlink">
<g id="graph0" class="graph" transform="scale(1 1) rotate(0) translate(4 242.8)">
<title>dependencies</title>
<polygon fill="white" stroke="transparent" points="-4,4 -4,-242.8 3157,-242.8 3157,4 -4,4"/>
<text text-anchor="middle" x="1576.5" y="-8.2" font-family="sans-serif" font-size="14.00">dependencies</text>
<g id="clust1" class="cluster">
<title>cluster_AppModule</title>
<polygon fill="none" stroke="black" stroke-dasharray="1,5" points="8,-32.8 8,-230.8 3145,-230.8 3145,-32.8 8,-32.8"/>
</g>
<g id="clust23" class="cluster">
<title>cluster_AppModule_imports</title>
<polygon fill="none" stroke="black" points="2763,-40.8 2763,-92.8 3137,-92.8 3137,-40.8 2763,-40.8"/>
</g>
<g id="clust25" class="cluster">
<title>cluster_AppModule_bootstrap</title>
<polygon fill="none" stroke="black" points="1562,-170.8 1562,-222.8 1686,-222.8 1686,-170.8 1562,-170.8"/>
</g>
<g id="clust2" class="cluster">
<title>cluster_AppModule_declarations</title>
<polygon fill="none" stroke="black" points="16,-40.8 16,-92.8 2755,-92.8 2755,-40.8 16,-40.8"/>
</g>
<!-- AlertsComponent -->
<g id="node1" class="node">
<title>AlertsComponent</title>
<polygon fill="#ffffb3" stroke="black" points="2746.55,-84.8 2631.45,-84.8 2631.45,-48.8 2746.55,-48.8 2746.55,-84.8"/>
<text text-anchor="middle" x="2689" y="-62.6" font-family="Times,serif" font-size="14.00">AlertsComponent</text>
</g>
<!-- AppModule -->
<g id="node21" class="node">
<title>AppModule</title>
<polygon fill="#8dd3c7" stroke="black" points="1665.66,-149.8 1662.66,-153.8 1641.66,-153.8 1638.66,-149.8 1582.34,-149.8 1582.34,-113.8 1665.66,-113.8 1665.66,-149.8"/>
<text text-anchor="middle" x="1624" y="-127.6" font-family="Times,serif" font-size="14.00">AppModule</text>
</g>
<!-- AlertsComponent&#45;&gt;AppModule -->
<g id="edge1" class="edge">
<title>AlertsComponent&#45;&gt;AppModule</title>
<path fill="none" stroke="black" d="M2689,-85.08C2689,-106.12 2689,-137.8 2689,-137.8 2689,-137.8 1675.75,-137.8 1675.75,-137.8"/>
<polygon fill="black" stroke="black" points="1675.75,-134.3 1665.75,-137.8 1675.75,-141.3 1675.75,-134.3"/>
</g>
<!-- AppComponent -->
<g id="node2" class="node">
<title>AppComponent</title>
<polygon fill="#ffffb3" stroke="black" points="2613.94,-84.8 2508.06,-84.8 2508.06,-48.8 2613.94,-48.8 2613.94,-84.8"/>
<text text-anchor="middle" x="2561" y="-62.6" font-family="Times,serif" font-size="14.00">AppComponent</text>
</g>
<!-- AppComponent&#45;&gt;AppModule -->
<g id="edge2" class="edge">
<title>AppComponent&#45;&gt;AppModule</title>
<path fill="none" stroke="black" d="M2561,-85.02C2561,-105.17 2561,-134.8 2561,-134.8 2561,-134.8 1675.78,-134.8 1675.78,-134.8"/>
<polygon fill="black" stroke="black" points="1675.78,-131.3 1665.78,-134.8 1675.78,-138.3 1675.78,-131.3"/>
</g>
<!-- ColorEditor -->
<g id="node3" class="node">
<title>ColorEditor</title>
<polygon fill="#ffffb3" stroke="black" points="2490.38,-84.8 2407.62,-84.8 2407.62,-48.8 2490.38,-48.8 2490.38,-84.8"/>
<text text-anchor="middle" x="2449" y="-62.6" font-family="Times,serif" font-size="14.00">ColorEditor</text>
</g>
<!-- ColorEditor&#45;&gt;AppModule -->
<g id="edge3" class="edge">
<title>ColorEditor&#45;&gt;AppModule</title>
<path fill="none" stroke="black" d="M2449,-84.91C2449,-104.14 2449,-131.8 2449,-131.8 2449,-131.8 1675.76,-131.8 1675.76,-131.8"/>
<polygon fill="black" stroke="black" points="1675.76,-128.3 1665.76,-131.8 1675.76,-135.3 1675.76,-128.3"/>
</g>
<!-- EntryComponent -->
<g id="node4" class="node">
<title>EntryComponent</title>
<polygon fill="#ffffb3" stroke="black" points="2389.44,-84.8 2276.56,-84.8 2276.56,-48.8 2389.44,-48.8 2389.44,-84.8"/>
<text text-anchor="middle" x="2333" y="-62.6" font-family="Times,serif" font-size="14.00">EntryComponent</text>
</g>
<!-- EntryComponent&#45;&gt;AppModule -->
<g id="edge4" class="edge">
<title>EntryComponent&#45;&gt;AppModule</title>
<path fill="none" stroke="black" d="M2333,-85.07C2333,-103.36 2333,-128.8 2333,-128.8 2333,-128.8 1675.7,-128.8 1675.7,-128.8"/>
<polygon fill="black" stroke="black" points="1675.7,-125.3 1665.7,-128.8 1675.7,-132.3 1675.7,-125.3"/>
</g>
<!-- FieldReportsComponent -->
<g id="node5" class="node">
<title>FieldReportsComponent</title>
<polygon fill="#ffffb3" stroke="black" points="2258.66,-84.8 2105.34,-84.8 2105.34,-48.8 2258.66,-48.8 2258.66,-84.8"/>
<text text-anchor="middle" x="2182" y="-62.6" font-family="Times,serif" font-size="14.00">FieldReportsComponent</text>
</g>
<!-- FieldReportsComponent&#45;&gt;AppModule -->
<g id="edge5" class="edge">
<title>FieldReportsComponent&#45;&gt;AppModule</title>
<path fill="none" stroke="black" d="M2182,-84.82C2182,-102.17 2182,-125.8 2182,-125.8 2182,-125.8 1675.94,-125.8 1675.94,-125.8"/>
<polygon fill="black" stroke="black" points="1675.94,-122.3 1665.94,-125.8 1675.94,-129.3 1675.94,-122.3"/>
</g>
<!-- FooterComponent -->
<g id="node6" class="node">
<title>FooterComponent</title>
<polygon fill="#ffffb3" stroke="black" points="2086.88,-84.8 1969.12,-84.8 1969.12,-48.8 2086.88,-48.8 2086.88,-84.8"/>
<text text-anchor="middle" x="2028" y="-62.6" font-family="Times,serif" font-size="14.00">FooterComponent</text>
</g>
<!-- FooterComponent&#45;&gt;AppModule -->
<g id="edge6" class="edge">
<title>FooterComponent&#45;&gt;AppModule</title>
<path fill="none" stroke="black" d="M2028,-84.83C2028,-101.2 2028,-122.8 2028,-122.8 2028,-122.8 1675.71,-122.8 1675.71,-122.8"/>
<polygon fill="black" stroke="black" points="1675.71,-119.3 1665.71,-122.8 1675.71,-126.3 1675.71,-119.3"/>
</g>
<!-- HeaderComponent -->
<g id="node7" class="node">
<title>HeaderComponent</title>
<polygon fill="#ffffb3" stroke="black" points="1950.75,-84.8 1829.25,-84.8 1829.25,-48.8 1950.75,-48.8 1950.75,-84.8"/>
<text text-anchor="middle" x="1890" y="-62.6" font-family="Times,serif" font-size="14.00">HeaderComponent</text>
</g>
<!-- HeaderComponent&#45;&gt;AppModule -->
<g id="edge7" class="edge">
<title>HeaderComponent&#45;&gt;AppModule</title>
<path fill="none" stroke="black" d="M1890,-85.04C1890,-100.37 1890,-119.8 1890,-119.8 1890,-119.8 1675.86,-119.8 1675.86,-119.8"/>
<polygon fill="black" stroke="black" points="1675.86,-116.3 1665.86,-119.8 1675.86,-123.3 1675.86,-116.3"/>
</g>
<!-- IconsComponent -->
<g id="node8" class="node">
<title>IconsComponent</title>
<polygon fill="#ffffb3" stroke="black" points="1810.66,-84.8 1699.34,-84.8 1699.34,-48.8 1810.66,-48.8 1810.66,-84.8"/>
<text text-anchor="middle" x="1755" y="-62.6" font-family="Times,serif" font-size="14.00">IconsComponent</text>
</g>
<!-- IconsComponent&#45;&gt;AppModule -->
<g id="edge8" class="edge">
<title>IconsComponent&#45;&gt;AppModule</title>
<path fill="none" stroke="black" d="M1755,-84.85C1755,-99.17 1755,-116.8 1755,-116.8 1755,-116.8 1675.81,-116.8 1675.81,-116.8"/>
<polygon fill="black" stroke="black" points="1675.81,-113.3 1665.81,-116.8 1675.81,-120.3 1675.81,-113.3"/>
</g>
<!-- LmapComponent -->
<g id="node9" class="node">
<title>LmapComponent</title>
<polygon fill="#ffffb3" stroke="black" points="1680.99,-84.8 1567.01,-84.8 1567.01,-48.8 1680.99,-48.8 1680.99,-84.8"/>
<text text-anchor="middle" x="1624" y="-62.6" font-family="Times,serif" font-size="14.00">LmapComponent</text>
</g>
<!-- LmapComponent&#45;&gt;AppModule -->
<g id="edge9" class="edge">
<title>LmapComponent&#45;&gt;AppModule</title>
<path fill="none" stroke="black" d="M1624,-84.91C1624,-84.91 1624,-103.79 1624,-103.79"/>
<polygon fill="black" stroke="black" points="1620.5,-103.79 1624,-113.79 1627.5,-103.79 1620.5,-103.79"/>
</g>
<!-- LocationComponent -->
<g id="node10" class="node">
<title>LocationComponent</title>
<polygon fill="#ffffb3" stroke="black" points="1548.59,-84.8 1417.41,-84.8 1417.41,-48.8 1548.59,-48.8 1548.59,-84.8"/>
<text text-anchor="middle" x="1483" y="-62.6" font-family="Times,serif" font-size="14.00">LocationComponent</text>
</g>
<!-- LocationComponent&#45;&gt;AppModule -->
<g id="edge10" class="edge">
<title>LocationComponent&#45;&gt;AppModule</title>
<path fill="none" stroke="black" d="M1483,-84.85C1483,-99.17 1483,-116.8 1483,-116.8 1483,-116.8 1572.08,-116.8 1572.08,-116.8"/>
<polygon fill="black" stroke="black" points="1572.08,-120.3 1582.08,-116.8 1572.08,-113.3 1572.08,-120.3"/>
</g>
<!-- LogComponent -->
<g id="node11" class="node">
<title>LogComponent</title>
<polygon fill="#ffffb3" stroke="black" points="1399.88,-84.8 1296.12,-84.8 1296.12,-48.8 1399.88,-48.8 1399.88,-84.8"/>
<text text-anchor="middle" x="1348" y="-62.6" font-family="Times,serif" font-size="14.00">LogComponent</text>
</g>
<!-- LogComponent&#45;&gt;AppModule -->
<g id="edge11" class="edge">
<title>LogComponent&#45;&gt;AppModule</title>
<path fill="none" stroke="black" d="M1348,-85.04C1348,-100.37 1348,-119.8 1348,-119.8 1348,-119.8 1572.08,-119.8 1572.08,-119.8"/>
<polygon fill="black" stroke="black" points="1572.08,-123.3 1582.08,-119.8 1572.08,-116.3 1572.08,-123.3"/>
</g>
<!-- MiniGMapComponent -->
<g id="node12" class="node">
<title>MiniGMapComponent</title>
<polygon fill="#ffffb3" stroke="black" points="1278.33,-84.8 1133.67,-84.8 1133.67,-48.8 1278.33,-48.8 1278.33,-84.8"/>
<text text-anchor="middle" x="1206" y="-62.6" font-family="Times,serif" font-size="14.00">MiniGMapComponent</text>
</g>
<!-- MiniGMapComponent&#45;&gt;AppModule -->
<g id="edge12" class="edge">
<title>MiniGMapComponent&#45;&gt;AppModule</title>
<path fill="none" stroke="black" d="M1206,-84.83C1206,-101.2 1206,-122.8 1206,-122.8 1206,-122.8 1572.01,-122.8 1572.01,-122.8"/>
<polygon fill="black" stroke="black" points="1572.01,-126.3 1582.01,-122.8 1572.01,-119.3 1572.01,-126.3"/>
</g>
<!-- MiniLMapComponent -->
<g id="node13" class="node">
<title>MiniLMapComponent</title>
<polygon fill="#ffffb3" stroke="black" points="1115.27,-84.8 972.73,-84.8 972.73,-48.8 1115.27,-48.8 1115.27,-84.8"/>
<text text-anchor="middle" x="1044" y="-62.6" font-family="Times,serif" font-size="14.00">MiniLMapComponent</text>
</g>
<!-- MiniLMapComponent&#45;&gt;AppModule -->
<g id="edge13" class="edge">
<title>MiniLMapComponent&#45;&gt;AppModule</title>
<path fill="none" stroke="black" d="M1044,-84.82C1044,-102.17 1044,-125.8 1044,-125.8 1044,-125.8 1572.29,-125.8 1572.29,-125.8"/>
<polygon fill="black" stroke="black" points="1572.29,-129.3 1582.29,-125.8 1572.29,-122.3 1572.29,-129.3"/>
</g>
<!-- MoodEditor -->
<g id="node14" class="node">
<title>MoodEditor</title>
<polygon fill="#ffffb3" stroke="black" points="954.44,-84.8 869.56,-84.8 869.56,-48.8 954.44,-48.8 954.44,-84.8"/>
<text text-anchor="middle" x="912" y="-62.6" font-family="Times,serif" font-size="14.00">MoodEditor</text>
</g>
<!-- MoodEditor&#45;&gt;AppModule -->
<g id="edge14" class="edge">
<title>MoodEditor&#45;&gt;AppModule</title>
<path fill="none" stroke="black" d="M912,-85.07C912,-103.36 912,-128.8 912,-128.8 912,-128.8 1572.12,-128.8 1572.12,-128.8"/>
<polygon fill="black" stroke="black" points="1572.12,-132.3 1582.12,-128.8 1572.12,-125.3 1572.12,-132.3"/>
</g>
<!-- MoodRenderer -->
<g id="node15" class="node">
<title>MoodRenderer</title>
<polygon fill="#ffffb3" stroke="black" points="851.25,-84.8 750.75,-84.8 750.75,-48.8 851.25,-48.8 851.25,-84.8"/>
<text text-anchor="middle" x="801" y="-62.6" font-family="Times,serif" font-size="14.00">MoodRenderer</text>
</g>
<!-- MoodRenderer&#45;&gt;AppModule -->
<g id="edge15" class="edge">
<title>MoodRenderer&#45;&gt;AppModule</title>
<path fill="none" stroke="black" d="M801,-84.91C801,-104.14 801,-131.8 801,-131.8 801,-131.8 1572.06,-131.8 1572.06,-131.8"/>
<polygon fill="black" stroke="black" points="1572.06,-135.3 1582.06,-131.8 1572.06,-128.3 1572.06,-135.3"/>
</g>
<!-- NavbarComponent -->
<g id="node16" class="node">
<title>NavbarComponent</title>
<polygon fill="#ffffb3" stroke="black" points="732.03,-84.8 609.97,-84.8 609.97,-48.8 732.03,-48.8 732.03,-84.8"/>
<text text-anchor="middle" x="671" y="-62.6" font-family="Times,serif" font-size="14.00">NavbarComponent</text>
</g>
<!-- NavbarComponent&#45;&gt;AppModule -->
<g id="edge16" class="edge">
<title>NavbarComponent&#45;&gt;AppModule</title>
<path fill="none" stroke="black" d="M671,-85.02C671,-105.17 671,-134.8 671,-134.8 671,-134.8 1572.13,-134.8 1572.13,-134.8"/>
<polygon fill="black" stroke="black" points="1572.13,-138.3 1582.13,-134.8 1572.13,-131.3 1572.13,-138.3"/>
</g>
<!-- RangersComponent -->
<g id="node17" class="node">
<title>RangersComponent</title>
<polygon fill="#ffffb3" stroke="black" points="591.71,-84.8 464.29,-84.8 464.29,-48.8 591.71,-48.8 591.71,-84.8"/>
<text text-anchor="middle" x="528" y="-62.6" font-family="Times,serif" font-size="14.00">RangersComponent</text>
</g>
<!-- RangersComponent&#45;&gt;AppModule -->
<g id="edge17" class="edge">
<title>RangersComponent&#45;&gt;AppModule</title>
<path fill="none" stroke="black" d="M528,-85.08C528,-106.12 528,-137.8 528,-137.8 528,-137.8 1572.04,-137.8 1572.04,-137.8"/>
<polygon fill="black" stroke="black" points="1572.04,-141.3 1582.04,-137.8 1572.04,-134.3 1572.04,-141.3"/>
</g>
<!-- SettingsComponent -->
<g id="node18" class="node">
<title>SettingsComponent</title>
<polygon fill="#ffffb3" stroke="black" points="446.45,-84.8 319.55,-84.8 319.55,-48.8 446.45,-48.8 446.45,-84.8"/>
<text text-anchor="middle" x="383" y="-62.6" font-family="Times,serif" font-size="14.00">SettingsComponent</text>
</g>
<!-- SettingsComponent&#45;&gt;AppModule -->
<g id="edge18" class="edge">
<title>SettingsComponent&#45;&gt;AppModule</title>
<path fill="none" stroke="black" d="M383,-85.09C383,-107.01 383,-140.8 383,-140.8 383,-140.8 1572,-140.8 1572,-140.8"/>
<polygon fill="black" stroke="black" points="1572,-144.3 1582,-140.8 1572,-137.3 1572,-144.3"/>
</g>
<!-- TimePickerComponent -->
<g id="node19" class="node">
<title>TimePickerComponent</title>
<polygon fill="#ffffb3" stroke="black" points="301.14,-84.8 154.86,-84.8 154.86,-48.8 301.14,-48.8 301.14,-84.8"/>
<text text-anchor="middle" x="228" y="-62.6" font-family="Times,serif" font-size="14.00">TimePickerComponent</text>
</g>
<!-- TimePickerComponent&#45;&gt;AppModule -->
<g id="edge19" class="edge">
<title>TimePickerComponent&#45;&gt;AppModule</title>
<path fill="none" stroke="black" d="M228,-85.05C228,-107.82 228,-143.8 228,-143.8 228,-143.8 1572.22,-143.8 1572.22,-143.8"/>
<polygon fill="black" stroke="black" points="1572.22,-147.3 1582.22,-143.8 1572.22,-140.3 1572.22,-147.3"/>
</g>
<!-- X404Component -->
<g id="node20" class="node">
<title>X404Component</title>
<polygon fill="#ffffb3" stroke="black" points="136.44,-84.8 23.56,-84.8 23.56,-48.8 136.44,-48.8 136.44,-84.8"/>
<text text-anchor="middle" x="80" y="-62.6" font-family="Times,serif" font-size="14.00">X404Component</text>
</g>
<!-- X404Component&#45;&gt;AppModule -->
<g id="edge20" class="edge">
<title>X404Component&#45;&gt;AppModule</title>
<path fill="none" stroke="black" d="M80,-84.95C80,-108.56 80,-146.8 80,-146.8 80,-146.8 1572.3,-146.8 1572.3,-146.8"/>
<polygon fill="black" stroke="black" points="1572.3,-150.3 1582.3,-146.8 1572.3,-143.3 1572.3,-150.3"/>
</g>
<!-- AppComponent  -->
<g id="node25" class="node">
<title>AppComponent </title>
<polygon fill="#80b1d3" stroke="black" points="1678.44,-214.8 1569.56,-214.8 1569.56,-178.8 1678.44,-178.8 1678.44,-214.8"/>
<text text-anchor="middle" x="1624" y="-192.6" font-family="Times,serif" font-size="14.00">AppComponent </text>
</g>
<!-- AppModule&#45;&gt;AppComponent  -->
<g id="edge24" class="edge">
<title>AppModule&#45;&gt;AppComponent </title>
<path fill="none" stroke="black" stroke-dasharray="1,5" d="M1624,-149.91C1624,-149.91 1624,-168.79 1624,-168.79"/>
<polygon fill="black" stroke="black" points="1620.5,-168.79 1624,-178.79 1627.5,-168.79 1620.5,-168.79"/>
</g>
<!-- AppRoutingModule -->
<g id="node22" class="node">
<title>AppRoutingModule</title>
<polygon fill="#8dd3c7" stroke="black" points="3129.28,-84.8 3126.28,-88.8 3105.28,-88.8 3102.28,-84.8 3000.72,-84.8 3000.72,-48.8 3129.28,-48.8 3129.28,-84.8"/>
<text text-anchor="middle" x="3065" y="-62.6" font-family="Times,serif" font-size="14.00">AppRoutingModule</text>
</g>
<!-- AppRoutingModule&#45;&gt;AppModule -->
<g id="edge21" class="edge">
<title>AppRoutingModule&#45;&gt;AppModule</title>
<path fill="none" stroke="black" d="M3065,-84.95C3065,-108.56 3065,-146.8 3065,-146.8 3065,-146.8 1675.96,-146.8 1675.96,-146.8"/>
<polygon fill="black" stroke="black" points="1675.96,-143.3 1665.96,-146.8 1675.96,-150.3 1675.96,-143.3"/>
</g>
<!-- LazyModule -->
<g id="node23" class="node">
<title>LazyModule</title>
<polygon fill="#8dd3c7" stroke="black" points="2982.53,-84.8 2979.53,-88.8 2958.53,-88.8 2955.53,-84.8 2895.47,-84.8 2895.47,-48.8 2982.53,-48.8 2982.53,-84.8"/>
<text text-anchor="middle" x="2939" y="-62.6" font-family="Times,serif" font-size="14.00">LazyModule</text>
</g>
<!-- LazyModule&#45;&gt;AppModule -->
<g id="edge22" class="edge">
<title>LazyModule&#45;&gt;AppModule</title>
<path fill="none" stroke="black" d="M2939,-85.05C2939,-107.82 2939,-143.8 2939,-143.8 2939,-143.8 1675.89,-143.8 1675.89,-143.8"/>
<polygon fill="black" stroke="black" points="1675.89,-140.3 1665.89,-143.8 1675.89,-147.3 1675.89,-140.3"/>
</g>
<!-- MaterialModule -->
<g id="node24" class="node">
<title>MaterialModule</title>
<polygon fill="#8dd3c7" stroke="black" points="2877.47,-84.8 2874.47,-88.8 2853.47,-88.8 2850.47,-84.8 2770.53,-84.8 2770.53,-48.8 2877.47,-48.8 2877.47,-84.8"/>
<text text-anchor="middle" x="2824" y="-62.6" font-family="Times,serif" font-size="14.00">MaterialModule</text>
</g>
<!-- MaterialModule&#45;&gt;AppModule -->
<g id="edge23" class="edge">
<title>MaterialModule&#45;&gt;AppModule</title>
<path fill="none" stroke="black" d="M2824,-85.09C2824,-107.01 2824,-140.8 2824,-140.8 2824,-140.8 1676.01,-140.8 1676.01,-140.8"/>
<polygon fill="black" stroke="black" points="1676.01,-137.3 1666.01,-140.8 1676,-144.3 1676.01,-137.3"/>
</g>
</g>
</svg>
