<svg xmlns="http://www.w3.org/2000/svg" xmlns:xlink="http://www.w3.org/1999/xlink" width="656pt" height="247pt" viewBox="0 0 656 246.8"><g id="graph0" class="graph" transform="scale(1 1) rotate(0) translate(4 242.8)"><title>dependencies</title><polygon fill="#fff" stroke="transparent" points="-4 4 -4 -242.8 652 -242.8 652 4 -4 4"/><text x="324" y="-8.2" font-family="sans-serif" font-size="14" text-anchor="middle">dependencies</text><g id="clust1" class="cluster"><title>cluster_LazyModule</title><polygon fill="none" stroke="#000" stroke-dasharray="1 5" points="8 -32.8 8 -230.8 640 -230.8 640 -32.8 8 -32.8"/></g><g id="clust6" class="cluster"><title>cluster_LazyModule_exports</title><polygon fill="none" stroke="#000" points="227 -170.8 227 -222.8 363 -222.8 363 -170.8 227 -170.8"/></g><g id="clust5" class="cluster"><title>cluster_LazyModule_imports</title><polygon fill="none" stroke="#000" points="484 -40.8 484 -92.8 632 -92.8 632 -40.8 484 -40.8"/></g><g id="clust8" class="cluster"><title>cluster_LazyModule_providers</title><polygon fill="none" stroke="#000" points="284 -40.8 284 -92.8 476 -92.8 476 -40.8 284 -40.8"/></g><g id="clust2" class="cluster"><title>cluster_LazyModule_declarations</title><polygon fill="none" stroke="#000" points="16 -40.8 16 -92.8 276 -92.8 276 -40.8 16 -40.8"/></g><g id="node1" class="node"><title>AboutComponent</title><polygon fill="#ffffb3" stroke="#000" points="268.33 -84.8 151.67 -84.8 151.67 -48.8 268.33 -48.8 268.33 -84.8"/><text x="210" y="-62.6" font-family="Times,serif" font-size="14" text-anchor="middle">AboutComponent</text></g><g id="node3" class="node"><title>LazyModule</title><polygon fill="#8dd3c7" stroke="#000" points="338.53 -149.8 335.53 -153.8 314.53 -153.8 311.53 -149.8 251.47 -149.8 251.47 -113.8 338.53 -113.8 338.53 -149.8"/><text x="295" y="-127.6" font-family="Times,serif" font-size="14" text-anchor="middle">LazyModule</text></g><g id="edge1" class="edge"><title>AboutComponent-&gt;LazyModule</title><path fill="none" stroke="#000" d="M259.7,-84.91C259.7,-84.91 259.7,-103.79 259.7,-103.79"/><polygon fill="#000" stroke="#000" points="256.2 -103.79 259.7 -113.79 263.2 -103.79 256.2 -103.79"/></g><g id="node2" class="node"><title>LazyComponent</title><polygon fill="#ffffb3" stroke="#000" points="133.81 -84.8 24.19 -84.8 24.19 -48.8 133.81 -48.8 133.81 -84.8"/><text x="79" y="-62.6" font-family="Times,serif" font-size="14" text-anchor="middle">LazyComponent</text></g><g id="edge2" class="edge"><title>LazyComponent-&gt;LazyModule</title><path fill="none" stroke="#000" d="M79,-84.91C79,-104.14 79,-131.8 79,-131.8 79,-131.8 241.29,-131.8 241.29,-131.8"/><polygon fill="#000" stroke="#000" points="241.29 -135.3 251.29 -131.8 241.29 -128.3 241.29 -135.3"/></g><g id="node5" class="node"><title>AboutComponent</title><polygon fill="#fb8072" stroke="#000" points="354.83 -214.8 235.17 -214.8 235.17 -178.8 354.83 -178.8 354.83 -214.8"/><text x="295" y="-192.6" font-family="Times,serif" font-size="14" text-anchor="middle">AboutComponent</text></g><g id="edge4" class="edge"><title>LazyModule-&gt;AboutComponent</title><path fill="none" stroke="#000" stroke-dasharray="5 2" d="M295,-149.91C295,-149.91 295,-168.79 295,-168.79"/><polygon fill="#000" stroke="#000" points="291.5 -168.79 295 -178.79 298.5 -168.79 291.5 -168.79"/></g><g id="node4" class="node"><title>LazyRoutingModule</title><polygon fill="#8dd3c7" stroke="#000" points="624.15 -84.8 621.15 -88.8 600.15 -88.8 597.15 -84.8 491.85 -84.8 491.85 -48.8 624.15 -48.8 624.15 -84.8"/><text x="558" y="-62.6" font-family="Times,serif" font-size="14" text-anchor="middle">LazyRoutingModule</text></g><g id="edge3" class="edge"><title>LazyRoutingModule-&gt;LazyModule</title><path fill="none" stroke="#000" d="M558,-84.91C558,-104.14 558,-131.8 558,-131.8 558,-131.8 348.72,-131.8 348.72,-131.8"/><polygon fill="#000" stroke="#000" points="348.72 -128.3 338.72 -131.8 348.72 -135.3 348.72 -128.3"/></g><g id="node6" class="node"><title>ThreeWordsService</title><ellipse cx="380" cy="-66.8" fill="#fdb462" stroke="#000" rx="88" ry="18"/><text x="380" y="-62.6" font-family="Times,serif" font-size="14" text-anchor="middle">ThreeWordsService</text></g><g id="edge5" class="edge"><title>ThreeWordsService-&gt;LazyModule</title><path fill="none" stroke="#000" d="M315.26,-79.33C315.26,-79.33 315.26,-103.65 315.26,-103.65"/><polygon fill="#000" stroke="#000" points="311.76 -103.65 315.26 -113.65 318.76 -103.65 311.76 -103.65"/></g></g></svg>