<svg xmlns="http://www.w3.org/2000/svg" xmlns:xlink="http://www.w3.org/1999/xlink" width="608" height="247pt" viewBox="0 0 456 246.8"><g id="graph0" class="graph" transform="scale(1 1) rotate(0) translate(4 242.8)"><title>dependencies</title><polygon fill="#fff" stroke="transparent" points="-4 4 -4 -242.8 452 -242.8 452 4 -4 4"/><text x="224" y="-8.2" font-family="sans-serif" font-size="14" text-anchor="middle">dependencies</text><g id="clust1" class="cluster"><title>cluster_LazyModule</title><polygon fill="none" stroke="#000" stroke-dasharray="1 5" points="8 -32.8 8 -230.8 440 -230.8 440 -32.8 8 -32.8"/></g><g id="clust2" class="cluster"><title>cluster_LazyModule_declarations</title><polygon fill="none" stroke="#000" points="172 -40.8 172 -92.8 432 -92.8 432 -40.8 172 -40.8"/></g><g id="clust6" class="cluster"><title>cluster_LazyModule_exports</title><polygon fill="none" stroke="#000" points="167 -170.8 167 -222.8 303 -222.8 303 -170.8 167 -170.8"/></g><g id="clust5" class="cluster"><title>cluster_LazyModule_imports</title><polygon fill="none" stroke="#000" points="16 -40.8 16 -92.8 164 -92.8 164 -40.8 16 -40.8"/></g><g id="node1" class="node"><title>AboutComponent</title><polygon fill="#ffffb3" stroke="#000" points="424.33 -84.8 307.67 -84.8 307.67 -48.8 424.33 -48.8 424.33 -84.8"/><text x="366" y="-62.6" font-family="Times,serif" font-size="14" text-anchor="middle">AboutComponent</text></g><g id="node3" class="node"><title>LazyModule</title><polygon fill="#8dd3c7" stroke="#000" points="278.53 -149.8 275.53 -153.8 254.53 -153.8 251.53 -149.8 191.47 -149.8 191.47 -113.8 278.53 -113.8 278.53 -149.8"/><text x="235" y="-127.6" font-family="Times,serif" font-size="14" text-anchor="middle">LazyModule</text></g><g id="edge1" class="edge"><title>AboutComponent-&gt;LazyModule</title><path fill="none" stroke="#000" d="M366,-84.91C366,-104.14 366,-131.8 366,-131.8 366,-131.8 288.62,-131.8 288.62,-131.8"/><polygon fill="#000" stroke="#000" points="288.62 -128.3 278.62 -131.8 288.62 -135.3 288.62 -128.3"/></g><g id="node2" class="node"><title>LazyComponent</title><polygon fill="#ffffb3" stroke="#000" points="289.81 -84.8 180.19 -84.8 180.19 -48.8 289.81 -48.8 289.81 -84.8"/><text x="235" y="-62.6" font-family="Times,serif" font-size="14" text-anchor="middle">LazyComponent</text></g><g id="edge2" class="edge"><title>LazyComponent-&gt;LazyModule</title><path fill="none" stroke="#000" d="M235,-84.91C235,-84.91 235,-103.79 235,-103.79"/><polygon fill="#000" stroke="#000" points="231.5 -103.79 235 -113.79 238.5 -103.79 231.5 -103.79"/></g><g id="node5" class="node"><title>AboutComponent</title><polygon fill="#fb8072" stroke="#000" points="294.83 -214.8 175.17 -214.8 175.17 -178.8 294.83 -178.8 294.83 -214.8"/><text x="235" y="-192.6" font-family="Times,serif" font-size="14" text-anchor="middle">AboutComponent</text></g><g id="edge4" class="edge"><title>LazyModule-&gt;AboutComponent</title><path fill="none" stroke="#000" stroke-dasharray="5 2" d="M235,-149.91C235,-149.91 235,-168.79 235,-168.79"/><polygon fill="#000" stroke="#000" points="231.5 -168.79 235 -178.79 238.5 -168.79 231.5 -168.79"/></g><g id="node4" class="node"><title>LazyRoutingModule</title><polygon fill="#8dd3c7" stroke="#000" points="156.15 -84.8 153.15 -88.8 132.15 -88.8 129.15 -84.8 23.85 -84.8 23.85 -48.8 156.15 -48.8 156.15 -84.8"/><text x="90" y="-62.6" font-family="Times,serif" font-size="14" text-anchor="middle">LazyRoutingModule</text></g><g id="edge3" class="edge"><title>LazyRoutingModule-&gt;LazyModule</title><path fill="none" stroke="#000" d="M90,-84.91C90,-104.14 90,-131.8 90,-131.8 90,-131.8 181.1,-131.8 181.1,-131.8"/><polygon fill="#000" stroke="#000" points="181.1 -135.3 191.1 -131.8 181.1 -128.3 181.1 -135.3"/></g></g></svg>