<svg xmlns="http://www.w3.org/2000/svg" xmlns:xlink="http://www.w3.org/1999/xlink" width="3487pt" height="323pt" viewBox="0 0 3487 322.8"><g id="graph0" class="graph" transform="scale(1 1) rotate(0) translate(4 318.8)"><title>dependencies</title><polygon fill="#fff" stroke="transparent" points="-4 4 -4 -318.8 3483 -318.8 3483 4 -4 4"/><text x="1739.5" y="-8.2" font-family="sans-serif" font-size="14" text-anchor="middle">dependencies</text><g id="clust1" class="cluster"><title>cluster_AppModule</title><polygon fill="none" stroke="#000" stroke-dasharray="1 5" points="8 -108.8 8 -306.8 3471 -306.8 3471 -108.8 8 -108.8"/></g><g id="clust2" class="cluster"><title>cluster_AppModule_declarations</title><polygon fill="none" stroke="#000" points="1499 -116.8 1499 -168.8 3463 -168.8 3463 -116.8 1499 -116.8"/></g><g id="clust18" class="cluster"><title>cluster_AppModule_imports</title><polygon fill="none" stroke="#000" points="1117 -116.8 1117 -168.8 1491 -168.8 1491 -116.8 1117 -116.8"/></g><g id="clust20" class="cluster"><title>cluster_AppModule_bootstrap</title><polygon fill="none" stroke="#000" points="1783 -246.8 1783 -298.8 1907 -298.8 1907 -246.8 1783 -246.8"/></g><g id="clust21" class="cluster"><title>cluster_AppModule_providers</title><polygon fill="none" stroke="#000" points="16 -116.8 16 -168.8 1109 -168.8 1109 -116.8 16 -116.8"/></g><g id="clust28" class="cluster"><title>cluster_LazyModule</title><polygon fill="none" stroke="#000" stroke-dasharray="1 5" points="867 -32.8 867 -100.8 1643 -100.8 1643 -32.8 867 -32.8"/></g><g id="clust29" class="cluster"><title>cluster_LazyModule_declarations</title><polygon fill="none" stroke="#000" points="1375 -40.8 1375 -92.8 1635 -92.8 1635 -40.8 1375 -40.8"/></g><g id="clust32" class="cluster"><title>cluster_LazyModule_imports</title><polygon fill="none" stroke="#000" points="1219 -40.8 1219 -92.8 1367 -92.8 1367 -40.8 1219 -40.8"/></g><g id="clust33" class="cluster"><title>cluster_LazyModule_exports</title><polygon fill="none" stroke="#000" points="1075 -40.8 1075 -92.8 1211 -92.8 1211 -40.8 1075 -40.8"/></g><g id="clust35" class="cluster"><title>cluster_LazyModule_providers</title><polygon fill="none" stroke="#000" points="875 -40.8 875 -92.8 1067 -92.8 1067 -40.8 875 -40.8"/></g><g id="node1" class="node"><title>AlertsComponent</title><polygon fill="#ffffb3" stroke="#000" points="3454.54 -160.8 3339.46 -160.8 3339.46 -124.8 3454.54 -124.8 3454.54 -160.8"/><text x="3397" y="-138.6" font-family="Times,serif" font-size="14" text-anchor="middle">AlertsComponent</text></g><g id="node16" class="node"><title>AppModule</title><polygon fill="#8dd3c7" stroke="#000" points="1886.66 -225.8 1883.66 -229.8 1862.66 -229.8 1859.66 -225.8 1803.34 -225.8 1803.34 -189.8 1886.66 -189.8 1886.66 -225.8"/><text x="1845" y="-203.6" font-family="Times,serif" font-size="14" text-anchor="middle">AppModule</text></g><g id="edge1" class="edge"><title>AlertsComponent-&gt;AppModule</title><path fill="none" stroke="#000" d="M3397,-161.18C3397,-185.08 3397,-223.8 3397,-223.8 3397,-223.8 1896.91,-223.8 1896.91,-223.8"/><polygon fill="#000" stroke="#000" points="1896.91 -220.3 1886.91 -223.8 1896.91 -227.3 1896.91 -220.3"/></g><g id="node2" class="node"><title>AppComponent</title><polygon fill="#ffffb3" stroke="#000" points="3321.94 -160.8 3216.06 -160.8 3216.06 -124.8 3321.94 -124.8 3321.94 -160.8"/><text x="3269" y="-138.6" font-family="Times,serif" font-size="14" text-anchor="middle">AppComponent</text></g><g id="edge2" class="edge"><title>AppComponent-&gt;AppModule</title><path fill="none" stroke="#000" d="M3269,-160.89C3269,-183.93 3269,-220.8 3269,-220.8 3269,-220.8 1896.85,-220.8 1896.85,-220.8"/><polygon fill="#000" stroke="#000" points="1896.85 -217.3 1886.85 -220.8 1896.85 -224.3 1896.85 -217.3"/></g><g id="node3" class="node"><title>ColorEditor</title><polygon fill="#ffffb3" stroke="#000" points="3198.38 -160.8 3115.62 -160.8 3115.62 -124.8 3198.38 -124.8 3198.38 -160.8"/><text x="3157" y="-138.6" font-family="Times,serif" font-size="14" text-anchor="middle">ColorEditor</text></g><g id="edge3" class="edge"><title>ColorEditor-&gt;AppModule</title><path fill="none" stroke="#000" d="M3157,-160.96C3157,-183.15 3157,-217.8 3157,-217.8 3157,-217.8 1896.8,-217.8 1896.8,-217.8"/><polygon fill="#000" stroke="#000" points="1896.8 -214.3 1886.8 -217.8 1896.8 -221.3 1896.8 -214.3"/></g><g id="node4" class="node"><title>EntryComponent</title><polygon fill="#ffffb3" stroke="#000" points="3097.44 -160.8 2984.56 -160.8 2984.56 -124.8 3097.44 -124.8 3097.44 -160.8"/><text x="3041" y="-138.6" font-family="Times,serif" font-size="14" text-anchor="middle">EntryComponent</text></g><g id="edge4" class="edge"><title>EntryComponent-&gt;AppModule</title><path fill="none" stroke="#000" d="M3041,-160.97C3041,-182.3 3041,-214.8 3041,-214.8 3041,-214.8 1896.86,-214.8 1896.86,-214.8"/><polygon fill="#000" stroke="#000" points="1896.87 -211.3 1886.86 -214.8 1896.86 -218.3 1896.87 -211.3"/></g><g id="node5" class="node"><title>FieldReportsComponent</title><polygon fill="#ffffb3" stroke="#000" points="2966.66 -160.8 2813.34 -160.8 2813.34 -124.8 2966.66 -124.8 2966.66 -160.8"/><text x="2890" y="-138.6" font-family="Times,serif" font-size="14" text-anchor="middle">FieldReportsComponent</text></g><g id="edge5" class="edge"><title>FieldReportsComponent-&gt;AppModule</title><path fill="none" stroke="#000" d="M2890,-160.83C2890,-181.57 2890,-212.8 2890,-212.8 2890,-212.8 1896.93,-212.8 1896.93,-212.8"/><polygon fill="#000" stroke="#000" points="1896.93 -209.3 1886.93 -212.8 1896.93 -216.3 1896.93 -209.3"/></g><g id="node6" class="node"><title>FooterComponent</title><polygon fill="#ffffb3" stroke="#000" points="2794.88 -160.8 2677.12 -160.8 2677.12 -124.8 2794.88 -124.8 2794.88 -160.8"/><text x="2736" y="-138.6" font-family="Times,serif" font-size="14" text-anchor="middle">FooterComponent</text></g><g id="edge6" class="edge"><title>FooterComponent-&gt;AppModule</title><path fill="none" stroke="#000" d="M2736,-161.11C2736,-180.95 2736,-209.8 2736,-209.8 2736,-209.8 1896.78,-209.8 1896.78,-209.8"/><polygon fill="#000" stroke="#000" points="1896.78 -206.3 1886.78 -209.8 1896.78 -213.3 1896.78 -206.3"/></g><g id="node7" class="node"><title>GmapComponent</title><polygon fill="#ffffb3" stroke="#000" points="2658.55 -160.8 2543.45 -160.8 2543.45 -124.8 2658.55 -124.8 2658.55 -160.8"/><text x="2601" y="-138.6" font-family="Times,serif" font-size="14" text-anchor="middle">GmapComponent</text></g><g id="edge7" class="edge"><title>GmapComponent-&gt;AppModule</title><path fill="none" stroke="#000" d="M2601,-160.97C2601,-179.89 2601,-206.8 2601,-206.8 2601,-206.8 1896.72,-206.8 1896.72,-206.8"/><polygon fill="#000" stroke="#000" points="1896.72 -203.3 1886.72 -206.8 1896.72 -210.3 1896.72 -203.3"/></g><g id="node8" class="node"><title>LmapComponent</title><polygon fill="#ffffb3" stroke="#000" points="2524.99 -160.8 2411.01 -160.8 2411.01 -124.8 2524.99 -124.8 2524.99 -160.8"/><text x="2468" y="-138.6" font-family="Times,serif" font-size="14" text-anchor="middle">LmapComponent</text></g><g id="edge8" class="edge"><title>LmapComponent-&gt;AppModule</title><path fill="none" stroke="#000" d="M2468,-161.1C2468,-179.07 2468,-203.8 2468,-203.8 2468,-203.8 1896.84,-203.8 1896.84,-203.8"/><polygon fill="#000" stroke="#000" points="1896.84 -200.3 1886.84 -203.8 1896.84 -207.3 1896.84 -200.3"/></g><g id="node9" class="node"><title>LogComponent</title><polygon fill="#ffffb3" stroke="#000" points="2392.89 -160.8 2289.11 -160.8 2289.11 -124.8 2392.89 -124.8 2392.89 -160.8"/><text x="2341" y="-138.6" font-family="Times,serif" font-size="14" text-anchor="middle">LogComponent</text></g><g id="edge9" class="edge"><title>LogComponent-&gt;AppModule</title><path fill="none" stroke="#000" d="M2341,-160.82C2341,-178.17 2341,-201.8 2341,-201.8 2341,-201.8 1896.86,-201.8 1896.86,-201.8"/><polygon fill="#000" stroke="#000" points="1896.86 -198.3 1886.86 -201.8 1896.86 -205.3 1896.86 -198.3"/></g><g id="node10" class="node"><title>MoodEditor</title><polygon fill="#ffffb3" stroke="#000" points="2271.44 -160.8 2186.56 -160.8 2186.56 -124.8 2271.44 -124.8 2271.44 -160.8"/><text x="2229" y="-138.6" font-family="Times,serif" font-size="14" text-anchor="middle">MoodEditor</text></g><g id="edge10" class="edge"><title>MoodEditor-&gt;AppModule</title><path fill="none" stroke="#000" d="M2229,-160.83C2229,-177.2 2229,-198.8 2229,-198.8 2229,-198.8 1896.83,-198.8 1896.83,-198.8"/><polygon fill="#000" stroke="#000" points="1896.83 -195.3 1886.83 -198.8 1896.83 -202.3 1896.83 -195.3"/></g><g id="node11" class="node"><title>MoodRenderer</title><polygon fill="#ffffb3" stroke="#000" points="2168.25 -160.8 2067.75 -160.8 2067.75 -124.8 2168.25 -124.8 2168.25 -160.8"/><text x="2118" y="-138.6" font-family="Times,serif" font-size="14" text-anchor="middle">MoodRenderer</text></g><g id="edge11" class="edge"><title>MoodRenderer-&gt;AppModule</title><path fill="none" stroke="#000" d="M2118,-161.04C2118,-176.37 2118,-195.8 2118,-195.8 2118,-195.8 1896.76,-195.8 1896.76,-195.8"/><polygon fill="#000" stroke="#000" points="1896.76 -192.3 1886.76 -195.8 1896.76 -199.3 1896.76 -192.3"/></g><g id="node12" class="node"><title>NavbarComponent</title><polygon fill="#ffffb3" stroke="#000" points="2049.03 -160.8 1926.97 -160.8 1926.97 -124.8 2049.03 -124.8 2049.03 -160.8"/><text x="1988" y="-138.6" font-family="Times,serif" font-size="14" text-anchor="middle">NavbarComponent</text></g><g id="edge12" class="edge"><title>NavbarComponent-&gt;AppModule</title><path fill="none" stroke="#000" d="M1988,-160.85C1988,-175.17 1988,-192.8 1988,-192.8 1988,-192.8 1896.75,-192.8 1896.75,-192.8"/><polygon fill="#000" stroke="#000" points="1896.75 -189.3 1886.75 -192.8 1896.75 -196.3 1896.75 -189.3"/></g><g id="node13" class="node"><title>RangersComponent</title><polygon fill="#ffffb3" stroke="#000" points="1908.7 -160.8 1781.3 -160.8 1781.3 -124.8 1908.7 -124.8 1908.7 -160.8"/><text x="1845" y="-138.6" font-family="Times,serif" font-size="14" text-anchor="middle">RangersComponent</text></g><g id="edge13" class="edge"><title>RangersComponent-&gt;AppModule</title><path fill="none" stroke="#000" d="M1845,-160.91C1845,-160.91 1845,-179.79 1845,-179.79"/><polygon fill="#000" stroke="#000" points="1841.5 -179.79 1845 -189.79 1848.5 -179.79 1841.5 -179.79"/></g><g id="node14" class="node"><title>SettingsComponent</title><polygon fill="#ffffb3" stroke="#000" points="1763.45 -160.8 1636.55 -160.8 1636.55 -124.8 1763.45 -124.8 1763.45 -160.8"/><text x="1700" y="-138.6" font-family="Times,serif" font-size="14" text-anchor="middle">SettingsComponent</text></g><g id="edge14" class="edge"><title>SettingsComponent-&gt;AppModule</title><path fill="none" stroke="#000" d="M1700,-160.85C1700,-175.17 1700,-192.8 1700,-192.8 1700,-192.8 1793.06,-192.8 1793.06,-192.8"/><polygon fill="#000" stroke="#000" points="1793.06 -196.3 1803.06 -192.8 1793.06 -189.3 1793.06 -196.3"/></g><g id="node15" class="node"><title>X404Component</title><polygon fill="#ffffb3" stroke="#000" points="1619.44 -160.8 1506.56 -160.8 1506.56 -124.8 1619.44 -124.8 1619.44 -160.8"/><text x="1563" y="-138.6" font-family="Times,serif" font-size="14" text-anchor="middle">X404Component</text></g><g id="edge15" class="edge"><title>X404Component-&gt;AppModule</title><path fill="none" stroke="#000" d="M1563,-161.04C1563,-176.37 1563,-195.8 1563,-195.8 1563,-195.8 1793.09,-195.8 1793.09,-195.8"/><polygon fill="#000" stroke="#000" points="1793.09 -199.3 1803.09 -195.8 1793.09 -192.3 1793.09 -199.3"/></g><g id="node20" class="node"><title>AppComponent</title><polygon fill="#80b1d3" stroke="#000" points="1899.44 -290.8 1790.56 -290.8 1790.56 -254.8 1899.44 -254.8 1899.44 -290.8"/><text x="1845" y="-268.6" font-family="Times,serif" font-size="14" text-anchor="middle">AppComponent</text></g><g id="edge19" class="edge"><title>AppModule-&gt;AppComponent</title><path fill="none" stroke="#000" stroke-dasharray="1 5" d="M1845,-225.91C1845,-225.91 1845,-244.79 1845,-244.79"/><polygon fill="#000" stroke="#000" points="1841.5 -244.79 1845 -254.79 1848.5 -244.79 1841.5 -244.79"/></g><g id="node17" class="node"><title>AppRoutingModule</title><polygon fill="#8dd3c7" stroke="#000" points="1483.27 -160.8 1480.27 -164.8 1459.27 -164.8 1456.27 -160.8 1354.73 -160.8 1354.73 -124.8 1483.27 -124.8 1483.27 -160.8"/><text x="1419" y="-138.6" font-family="Times,serif" font-size="14" text-anchor="middle">AppRoutingModule</text></g><g id="edge16" class="edge"><title>AppRoutingModule-&gt;AppModule</title><path fill="none" stroke="#000" d="M1419,-160.83C1419,-177.2 1419,-198.8 1419,-198.8 1419,-198.8 1792.99,-198.8 1792.99,-198.8"/><polygon fill="#000" stroke="#000" points="1792.99 -202.3 1802.99 -198.8 1792.99 -195.3 1792.99 -202.3"/></g><g id="node18" class="node"><title>LazyModule</title><polygon fill="#8dd3c7" stroke="#000" points="1336.53 -160.8 1333.53 -164.8 1312.53 -164.8 1309.53 -160.8 1249.47 -160.8 1249.47 -124.8 1336.53 -124.8 1336.53 -160.8"/><text x="1293" y="-138.6" font-family="Times,serif" font-size="14" text-anchor="middle">LazyModule</text></g><g id="edge17" class="edge"><title>LazyModule-&gt;AppModule</title><path fill="none" stroke="#000" d="M1293,-160.82C1293,-178.17 1293,-201.8 1293,-201.8 1293,-201.8 1793.06,-201.8 1793.06,-201.8"/><polygon fill="#000" stroke="#000" points="1793.06 -205.3 1803.06 -201.8 1793.06 -198.3 1793.06 -205.3"/></g><g id="node31" class="node"><title>AboutComponent</title><polygon fill="#fb8072" stroke="#000" points="1202.83 -84.8 1083.17 -84.8 1083.17 -48.8 1202.83 -48.8 1202.83 -84.8"/><text x="1143" y="-62.6" font-family="Times,serif" font-size="14" text-anchor="middle">AboutComponent</text></g><g id="edge30" class="edge"><title>LazyModule-&gt;AboutComponent</title><path fill="none" stroke="#000" stroke-dasharray="5 2" d="M1278.41,-124.75C1278.41,-110.43 1278.41,-92.8 1278.41,-92.8 1278.41,-92.8 1163.71,-92.8 1163.71,-92.8 1163.71,-92.8 1163.71,-92.01 1163.71,-92.01"/><polygon fill="#000" stroke="#000" points="1167.21 -94.86 1163.71 -84.86 1160.21 -94.86 1167.21 -94.86"/></g><g id="node19" class="node"><title>MaterialModule</title><polygon fill="#8dd3c7" stroke="#000" points="1231.47 -160.8 1228.47 -164.8 1207.47 -164.8 1204.47 -160.8 1124.53 -160.8 1124.53 -124.8 1231.47 -124.8 1231.47 -160.8"/><text x="1178" y="-138.6" font-family="Times,serif" font-size="14" text-anchor="middle">MaterialModule</text></g><g id="edge18" class="edge"><title>MaterialModule-&gt;AppModule</title><path fill="none" stroke="#000" d="M1178,-161.1C1178,-179.07 1178,-203.8 1178,-203.8 1178,-203.8 1793.28,-203.8 1793.28,-203.8"/><polygon fill="#000" stroke="#000" points="1793.28 -207.3 1803.28 -203.8 1793.28 -200.3 1793.28 -207.3"/></g><g id="node21" class="node"><title>FieldReportService</title><ellipse cx="1015" cy="-142.8" fill="#fdb462" stroke="#000" rx="86.25" ry="18"/><text x="1015" y="-138.6" font-family="Times,serif" font-size="14" text-anchor="middle">FieldReportService</text></g><g id="edge20" class="edge"><title>FieldReportService-&gt;AppModule</title><path fill="none" stroke="#000" d="M1015,-160.97C1015,-179.89 1015,-206.8 1015,-206.8 1015,-206.8 1793.27,-206.8 1793.27,-206.8"/><polygon fill="#000" stroke="#000" points="1793.27 -210.3 1803.27 -206.8 1793.27 -203.3 1793.27 -210.3"/></g><g id="node22" class="node"><title>MarkerService</title><ellipse cx="842" cy="-142.8" fill="#fdb462" stroke="#000" rx="68.32" ry="18"/><text x="842" y="-138.6" font-family="Times,serif" font-size="14" text-anchor="middle">MarkerService</text></g><g id="edge21" class="edge"><title>MarkerService-&gt;AppModule</title><path fill="none" stroke="#000" d="M842,-161.11C842,-180.95 842,-209.8 842,-209.8 842,-209.8 1793.18,-209.8 1793.18,-209.8"/><polygon fill="#000" stroke="#000" points="1793.18 -213.3 1803.18 -209.8 1793.18 -206.3 1793.18 -213.3"/></g><g id="node23" class="node"><title>PopupService</title><ellipse cx="691" cy="-142.8" fill="#fdb462" stroke="#000" rx="64.85" ry="18"/><text x="691" y="-138.6" font-family="Times,serif" font-size="14" text-anchor="middle">PopupService</text></g><g id="edge22" class="edge"><title>PopupService-&gt;AppModule</title><path fill="none" stroke="#000" d="M691,-160.83C691,-181.57 691,-212.8 691,-212.8 691,-212.8 1793.25,-212.8 1793.25,-212.8"/><polygon fill="#000" stroke="#000" points="1793.25 -216.3 1803.25 -212.8 1793.25 -209.3 1793.25 -216.3"/></g><g id="node24" class="node"><title>RangerService</title><ellipse cx="540" cy="-142.8" fill="#fdb462" stroke="#000" rx="67.75" ry="18"/><text x="540" y="-138.6" font-family="Times,serif" font-size="14" text-anchor="middle">RangerService</text></g><g id="edge23" class="edge"><title>RangerService-&gt;AppModule</title><path fill="none" stroke="#000" d="M540,-160.97C540,-182.3 540,-214.8 540,-214.8 540,-214.8 1793.06,-214.8 1793.06,-214.8"/><polygon fill="#000" stroke="#000" points="1793.06 -218.3 1803.06 -214.8 1793.06 -211.3 1793.06 -218.3"/></g><g id="node25" class="node"><title>SettingsService</title><ellipse cx="383" cy="-142.8" fill="#fdb462" stroke="#000" rx="71.22" ry="18"/><text x="383" y="-138.6" font-family="Times,serif" font-size="14" text-anchor="middle">SettingsService</text></g><g id="edge24" class="edge"><title>SettingsService-&gt;AppModule</title><path fill="none" stroke="#000" d="M383,-160.96C383,-183.15 383,-217.8 383,-217.8 383,-217.8 1793.21,-217.8 1793.21,-217.8"/><polygon fill="#000" stroke="#000" points="1793.21 -221.3 1803.21 -217.8 1793.21 -214.3 1793.21 -221.3"/></g><g id="node26" class="node"><title>ShapeService</title><ellipse cx="230" cy="-142.8" fill="#fdb462" stroke="#000" rx="63.68" ry="18"/><text x="230" y="-138.6" font-family="Times,serif" font-size="14" text-anchor="middle">ShapeService</text></g><g id="edge25" class="edge"><title>ShapeService-&gt;AppModule</title><path fill="none" stroke="#000" d="M230,-160.89C230,-183.93 230,-220.8 230,-220.8 230,-220.8 1793.05,-220.8 1793.05,-220.8"/><polygon fill="#000" stroke="#000" points="1793.05 -224.3 1803.05 -220.8 1793.05 -217.3 1793.05 -224.3"/></g><g id="node27" class="node"><title>TeamService</title><ellipse cx="86" cy="-142.8" fill="#fdb462" stroke="#000" rx="61.95" ry="18"/><text x="86" y="-138.6" font-family="Times,serif" font-size="14" text-anchor="middle">TeamService</text></g><g id="edge26" class="edge"><title>TeamService-&gt;AppModule</title><path fill="none" stroke="#000" d="M86,-161.18C86,-185.08 86,-223.8 86,-223.8 86,-223.8 1793.25,-223.8 1793.25,-223.8"/><polygon fill="#000" stroke="#000" points="1793.25 -227.3 1803.25 -223.8 1793.25 -220.3 1793.25 -227.3"/></g><g id="node28" class="node"><title>AboutComponent</title><polygon fill="#ffffb3" stroke="#000" points="1627.33 -84.8 1510.67 -84.8 1510.67 -48.8 1627.33 -48.8 1627.33 -84.8"/><text x="1569" y="-62.6" font-family="Times,serif" font-size="14" text-anchor="middle">AboutComponent</text></g><g id="edge27" class="edge"><title>AboutComponent-&gt;LazyModule</title><path fill="none" stroke="#000" d="M1565.03,-84.85C1565.03,-99.17 1565.03,-116.8 1565.03,-116.8 1565.03,-116.8 1322.18,-116.8 1322.18,-116.8 1322.18,-116.8 1322.18,-117.59 1322.18,-117.59"/><polygon fill="#000" stroke="#000" points="1318.68 -114.74 1322.18 -124.74 1325.68 -114.74 1318.68 -114.74"/></g><g id="node29" class="node"><title>LazyComponent</title><polygon fill="#ffffb3" stroke="#000" points="1492.81 -84.8 1383.19 -84.8 1383.19 -48.8 1492.81 -48.8 1492.81 -84.8"/><text x="1438" y="-62.6" font-family="Times,serif" font-size="14" text-anchor="middle">LazyComponent</text></g><g id="edge28" class="edge"><title>LazyComponent-&gt;LazyModule</title><path fill="none" stroke="#000" d="M1433.37,-84.86C1433.37,-96.24 1433.37,-108.8 1433.37,-108.8 1433.37,-108.8 1307.59,-108.8 1307.59,-108.8 1307.59,-108.8 1307.59,-114.61 1307.59,-114.61"/><polygon fill="#000" stroke="#000" points="1304.09 -114.61 1307.59 -124.61 1311.09 -114.61 1304.09 -114.61"/></g><g id="node30" class="node"><title>LazyRoutingModule</title><polygon fill="#8dd3c7" stroke="#000" points="1359.15 -84.8 1356.15 -88.8 1335.15 -88.8 1332.15 -84.8 1226.85 -84.8 1226.85 -48.8 1359.15 -48.8 1359.15 -84.8"/><text x="1293" y="-62.6" font-family="Times,serif" font-size="14" text-anchor="middle">LazyRoutingModule</text></g><g id="edge29" class="edge"><title>LazyRoutingModule-&gt;LazyModule</title><path fill="none" stroke="#000" d="M1293,-84.81C1293,-84.81 1293,-114.65 1293,-114.65"/><polygon fill="#000" stroke="#000" points="1289.5 -114.65 1293 -124.65 1296.5 -114.65 1289.5 -114.65"/></g><g id="node32" class="node"><title>ThreeWordsService</title><ellipse cx="971" cy="-66.8" fill="#fdb462" stroke="#000" rx="88" ry="18"/><text x="971" y="-62.6" font-family="Times,serif" font-size="14" text-anchor="middle">ThreeWordsService</text></g><g id="edge31" class="edge"><title>ThreeWordsService-&gt;LazyModule</title><path fill="none" stroke="#000" d="M994.06,-84.2C994.06,-92.56 994.06,-100.8 994.06,-100.8 994.06,-100.8 1263.82,-100.8 1263.82,-100.8 1263.82,-100.8 1263.82,-114.74 1263.82,-114.74"/><polygon fill="#000" stroke="#000" points="1260.32 -114.74 1263.82 -124.74 1267.32 -114.74 1260.32 -114.74"/></g></g></svg>