<?xml version="1.0" encoding="UTF-8" standalone="no"?>
<!DOCTYPE svg PUBLIC "-//W3C//DTD SVG 1.1//EN"
 "http://www.w3.org/Graphics/SVG/1.1/DTD/svg11.dtd">
<!-- Generated by graphviz version 5.0.0 (20220707.1540)
 -->
<!-- Title: dependencies Pages: 1 -->
<svg width="3053pt" height="323pt"
 viewBox="0.00 0.00 3053.00 322.80" xmlns="http://www.w3.org/2000/svg" xmlns:xlink="http://www.w3.org/1999/xlink">
<g id="graph0" class="graph" transform="scale(1 1) rotate(0) translate(4 318.8)">
<title>dependencies</title>
<polygon fill="white" stroke="transparent" points="-4,4 -4,-318.8 3049,-318.8 3049,4 -4,4"/>
<text text-anchor="middle" x="1522.5" y="-8.2" font-family="sans-serif" font-size="14.00">dependencies</text>
<g id="clust1" class="cluster">
<title>cluster_AppModule</title>
<polygon fill="none" stroke="black" stroke-dasharray="1,5" points="122,-108.8 122,-306.8 3037,-306.8 3037,-108.8 122,-108.8"/>
</g>
<g id="clust2" class="cluster">
<title>cluster_AppModule_declarations</title>
<polygon fill="none" stroke="black" points="512,-116.8 512,-168.8 3029,-168.8 3029,-116.8 512,-116.8"/>
</g>
<g id="clust21" class="cluster">
<title>cluster_AppModule_imports</title>
<polygon fill="none" stroke="black" points="130,-116.8 130,-168.8 504,-168.8 504,-116.8 130,-116.8"/>
</g>
<g id="clust23" class="cluster">
<title>cluster_AppModule_bootstrap</title>
<polygon fill="none" stroke="black" points="1560,-246.8 1560,-298.8 1684,-298.8 1684,-246.8 1560,-246.8"/>
</g>
<g id="clust31" class="cluster">
<title>cluster_LazyModule</title>
<polygon fill="none" stroke="black" stroke-dasharray="1,5" points="8,-32.8 8,-100.8 584,-100.8 584,-32.8 8,-32.8"/>
</g>
<g id="clust32" class="cluster">
<title>cluster_LazyModule_declarations</title>
<polygon fill="none" stroke="black" points="316,-40.8 316,-92.8 576,-92.8 576,-40.8 316,-40.8"/>
</g>
<g id="clust35" class="cluster">
<title>cluster_LazyModule_imports</title>
<polygon fill="none" stroke="black" points="160,-40.8 160,-92.8 308,-92.8 308,-40.8 160,-40.8"/>
</g>
<g id="clust36" class="cluster">
<title>cluster_LazyModule_exports</title>
<polygon fill="none" stroke="black" points="16,-40.8 16,-92.8 152,-92.8 152,-40.8 16,-40.8"/>
</g>
<!-- AlertsComponent -->
<g id="node1" class="node">
<title>AlertsComponent</title>
<polygon fill="#ffffb3" stroke="black" points="3020.55,-160.8 2905.45,-160.8 2905.45,-124.8 3020.55,-124.8 3020.55,-160.8"/>
<text text-anchor="middle" x="2963" y="-138.6" font-family="Times,serif" font-size="14.00">AlertsComponent</text>
</g>
<!-- AppModule -->
<g id="node19" class="node">
<title>AppModule</title>
<polygon fill="#8dd3c7" stroke="black" points="1663.66,-225.8 1660.66,-229.8 1639.66,-229.8 1636.66,-225.8 1580.34,-225.8 1580.34,-189.8 1663.66,-189.8 1663.66,-225.8"/>
<text text-anchor="middle" x="1622" y="-203.6" font-family="Times,serif" font-size="14.00">AppModule</text>
</g>
<!-- AlertsComponent&#45;&gt;AppModule -->
<g id="edge1" class="edge">
<title>AlertsComponent&#45;&gt;AppModule</title>
<path fill="none" stroke="black" d="M2963,-160.95C2963,-184.56 2963,-222.8 2963,-222.8 2963,-222.8 1673.98,-222.8 1673.98,-222.8"/>
<polygon fill="black" stroke="black" points="1673.98,-219.3 1663.98,-222.8 1673.98,-226.3 1673.98,-219.3"/>
</g>
<!-- AppComponent -->
<g id="node2" class="node">
<title>AppComponent</title>
<polygon fill="#ffffb3" stroke="black" points="2887.94,-160.8 2782.06,-160.8 2782.06,-124.8 2887.94,-124.8 2887.94,-160.8"/>
<text text-anchor="middle" x="2835" y="-138.6" font-family="Times,serif" font-size="14.00">AppComponent</text>
</g>
<!-- AppComponent&#45;&gt;AppModule -->
<g id="edge2" class="edge">
<title>AppComponent&#45;&gt;AppModule</title>
<path fill="none" stroke="black" d="M2835,-161.05C2835,-183.82 2835,-219.8 2835,-219.8 2835,-219.8 1673.75,-219.8 1673.75,-219.8"/>
<polygon fill="black" stroke="black" points="1673.75,-216.3 1663.75,-219.8 1673.75,-223.3 1673.75,-216.3"/>
</g>
<!-- ColorEditor -->
<g id="node3" class="node">
<title>ColorEditor</title>
<polygon fill="#ffffb3" stroke="black" points="2764.38,-160.8 2681.62,-160.8 2681.62,-124.8 2764.38,-124.8 2764.38,-160.8"/>
<text text-anchor="middle" x="2723" y="-138.6" font-family="Times,serif" font-size="14.00">ColorEditor</text>
</g>
<!-- ColorEditor&#45;&gt;AppModule -->
<g id="edge3" class="edge">
<title>ColorEditor&#45;&gt;AppModule</title>
<path fill="none" stroke="black" d="M2723,-161.09C2723,-183.01 2723,-216.8 2723,-216.8 2723,-216.8 1673.82,-216.8 1673.82,-216.8"/>
<polygon fill="black" stroke="black" points="1673.82,-213.3 1663.82,-216.8 1673.82,-220.3 1673.82,-213.3"/>
</g>
<!-- EntryComponent -->
<g id="node4" class="node">
<title>EntryComponent</title>
<polygon fill="#ffffb3" stroke="black" points="2663.44,-160.8 2550.56,-160.8 2550.56,-124.8 2663.44,-124.8 2663.44,-160.8"/>
<text text-anchor="middle" x="2607" y="-138.6" font-family="Times,serif" font-size="14.00">EntryComponent</text>
</g>
<!-- EntryComponent&#45;&gt;AppModule -->
<g id="edge4" class="edge">
<title>EntryComponent&#45;&gt;AppModule</title>
<path fill="none" stroke="black" d="M2607,-160.83C2607,-181.57 2607,-212.8 2607,-212.8 2607,-212.8 1673.7,-212.8 1673.7,-212.8"/>
<polygon fill="black" stroke="black" points="1673.7,-209.3 1663.7,-212.8 1673.7,-216.3 1673.7,-209.3"/>
</g>
<!-- FieldReportsComponent -->
<g id="node5" class="node">
<title>FieldReportsComponent</title>
<polygon fill="#ffffb3" stroke="black" points="2532.66,-160.8 2379.34,-160.8 2379.34,-124.8 2532.66,-124.8 2532.66,-160.8"/>
<text text-anchor="middle" x="2456" y="-138.6" font-family="Times,serif" font-size="14.00">FieldReportsComponent</text>
</g>
<!-- FieldReportsComponent&#45;&gt;AppModule -->
<g id="edge5" class="edge">
<title>FieldReportsComponent&#45;&gt;AppModule</title>
<path fill="none" stroke="black" d="M2456,-161.11C2456,-180.95 2456,-209.8 2456,-209.8 2456,-209.8 1673.93,-209.8 1673.93,-209.8"/>
<polygon fill="black" stroke="black" points="1673.93,-206.3 1663.93,-209.8 1673.93,-213.3 1673.93,-206.3"/>
</g>
<!-- FooterComponent -->
<g id="node6" class="node">
<title>FooterComponent</title>
<polygon fill="#ffffb3" stroke="black" points="2360.88,-160.8 2243.12,-160.8 2243.12,-124.8 2360.88,-124.8 2360.88,-160.8"/>
<text text-anchor="middle" x="2302" y="-138.6" font-family="Times,serif" font-size="14.00">FooterComponent</text>
</g>
<!-- FooterComponent&#45;&gt;AppModule -->
<g id="edge6" class="edge">
<title>FooterComponent&#45;&gt;AppModule</title>
<path fill="none" stroke="black" d="M2302,-160.97C2302,-179.89 2302,-206.8 2302,-206.8 2302,-206.8 1673.77,-206.8 1673.77,-206.8"/>
<polygon fill="black" stroke="black" points="1673.77,-203.3 1663.77,-206.8 1673.77,-210.3 1673.77,-203.3"/>
</g>
<!-- HeaderComponent -->
<g id="node7" class="node">
<title>HeaderComponent</title>
<polygon fill="#ffffb3" stroke="black" points="2224.75,-160.8 2103.25,-160.8 2103.25,-124.8 2224.75,-124.8 2224.75,-160.8"/>
<text text-anchor="middle" x="2164" y="-138.6" font-family="Times,serif" font-size="14.00">HeaderComponent</text>
</g>
<!-- HeaderComponent&#45;&gt;AppModule -->
<g id="edge7" class="edge">
<title>HeaderComponent&#45;&gt;AppModule</title>
<path fill="none" stroke="black" d="M2164,-161.1C2164,-179.07 2164,-203.8 2164,-203.8 2164,-203.8 1674.08,-203.8 1674.08,-203.8"/>
<polygon fill="black" stroke="black" points="1674.08,-200.3 1664.08,-203.8 1674.08,-207.3 1674.08,-200.3"/>
</g>
<!-- IconsComponent -->
<g id="node8" class="node">
<title>IconsComponent</title>
<polygon fill="#ffffb3" stroke="black" points="2084.66,-160.8 1973.34,-160.8 1973.34,-124.8 2084.66,-124.8 2084.66,-160.8"/>
<text text-anchor="middle" x="2029" y="-138.6" font-family="Times,serif" font-size="14.00">IconsComponent</text>
</g>
<!-- IconsComponent&#45;&gt;AppModule -->
<g id="edge8" class="edge">
<title>IconsComponent&#45;&gt;AppModule</title>
<path fill="none" stroke="black" d="M2029,-160.84C2029,-177.53 2029,-199.8 2029,-199.8 2029,-199.8 1674.02,-199.8 1674.02,-199.8"/>
<polygon fill="black" stroke="black" points="1674.02,-196.3 1664.02,-199.8 1674.02,-203.3 1674.02,-196.3"/>
</g>
<!-- LmapComponent -->
<g id="node9" class="node">
<title>LmapComponent</title>
<polygon fill="#ffffb3" stroke="black" points="1954.99,-160.8 1841.01,-160.8 1841.01,-124.8 1954.99,-124.8 1954.99,-160.8"/>
<text text-anchor="middle" x="1898" y="-138.6" font-family="Times,serif" font-size="14.00">LmapComponent</text>
</g>
<!-- LmapComponent&#45;&gt;AppModule -->
<g id="edge9" class="edge">
<title>LmapComponent&#45;&gt;AppModule</title>
<path fill="none" stroke="black" d="M1898,-161.08C1898,-176.75 1898,-196.8 1898,-196.8 1898,-196.8 1673.92,-196.8 1673.92,-196.8"/>
<polygon fill="black" stroke="black" points="1673.92,-193.3 1663.92,-196.8 1673.92,-200.3 1673.92,-193.3"/>
</g>
<!-- LocationComponent -->
<g id="node10" class="node">
<title>LocationComponent</title>
<polygon fill="#ffffb3" stroke="black" points="1822.59,-160.8 1691.41,-160.8 1691.41,-124.8 1822.59,-124.8 1822.59,-160.8"/>
<text text-anchor="middle" x="1757" y="-138.6" font-family="Times,serif" font-size="14.00">LocationComponent</text>
</g>
<!-- LocationComponent&#45;&gt;AppModule -->
<g id="edge10" class="edge">
<title>LocationComponent&#45;&gt;AppModule</title>
<path fill="none" stroke="black" d="M1757,-160.92C1757,-175.58 1757,-193.8 1757,-193.8 1757,-193.8 1673.97,-193.8 1673.97,-193.8"/>
<polygon fill="black" stroke="black" points="1673.97,-190.3 1663.97,-193.8 1673.97,-197.3 1673.97,-190.3"/>
</g>
<!-- LogComponent -->
<g id="node11" class="node">
<title>LogComponent</title>
<polygon fill="#ffffb3" stroke="black" points="1673.88,-160.8 1570.12,-160.8 1570.12,-124.8 1673.88,-124.8 1673.88,-160.8"/>
<text text-anchor="middle" x="1622" y="-138.6" font-family="Times,serif" font-size="14.00">LogComponent</text>
</g>
<!-- LogComponent&#45;&gt;AppModule -->
<g id="edge11" class="edge">
<title>LogComponent&#45;&gt;AppModule</title>
<path fill="none" stroke="black" d="M1622,-160.91C1622,-160.91 1622,-179.79 1622,-179.79"/>
<polygon fill="black" stroke="black" points="1618.5,-179.79 1622,-189.79 1625.5,-179.79 1618.5,-179.79"/>
</g>
<!-- MiniGMapComponent -->
<g id="node12" class="node">
<title>MiniGMapComponent</title>
<polygon fill="#ffffb3" stroke="black" points="1552.33,-160.8 1407.67,-160.8 1407.67,-124.8 1552.33,-124.8 1552.33,-160.8"/>
<text text-anchor="middle" x="1480" y="-138.6" font-family="Times,serif" font-size="14.00">MiniGMapComponent</text>
</g>
<!-- MiniGMapComponent&#45;&gt;AppModule -->
<g id="edge12" class="edge">
<title>MiniGMapComponent&#45;&gt;AppModule</title>
<path fill="none" stroke="black" d="M1480,-160.92C1480,-175.58 1480,-193.8 1480,-193.8 1480,-193.8 1570.16,-193.8 1570.16,-193.8"/>
<polygon fill="black" stroke="black" points="1570.16,-197.3 1580.16,-193.8 1570.16,-190.3 1570.16,-197.3"/>
</g>
<!-- MiniLMapComponent -->
<g id="node13" class="node">
<title>MiniLMapComponent</title>
<polygon fill="#ffffb3" stroke="black" points="1389.27,-160.8 1246.73,-160.8 1246.73,-124.8 1389.27,-124.8 1389.27,-160.8"/>
<text text-anchor="middle" x="1318" y="-138.6" font-family="Times,serif" font-size="14.00">MiniLMapComponent</text>
</g>
<!-- MiniLMapComponent&#45;&gt;AppModule -->
<g id="edge13" class="edge">
<title>MiniLMapComponent&#45;&gt;AppModule</title>
<path fill="none" stroke="black" d="M1318,-161.08C1318,-176.75 1318,-196.8 1318,-196.8 1318,-196.8 1570.05,-196.8 1570.05,-196.8"/>
<polygon fill="black" stroke="black" points="1570.05,-200.3 1580.05,-196.8 1570.05,-193.3 1570.05,-200.3"/>
</g>
<!-- NavbarComponent -->
<g id="node14" class="node">
<title>NavbarComponent</title>
<polygon fill="#ffffb3" stroke="black" points="1228.03,-160.8 1105.97,-160.8 1105.97,-124.8 1228.03,-124.8 1228.03,-160.8"/>
<text text-anchor="middle" x="1167" y="-138.6" font-family="Times,serif" font-size="14.00">NavbarComponent</text>
</g>
<!-- NavbarComponent&#45;&gt;AppModule -->
<g id="edge14" class="edge">
<title>NavbarComponent&#45;&gt;AppModule</title>
<path fill="none" stroke="black" d="M1167,-160.84C1167,-177.53 1167,-199.8 1167,-199.8 1167,-199.8 1570.01,-199.8 1570.01,-199.8"/>
<polygon fill="black" stroke="black" points="1570.01,-203.3 1580.01,-199.8 1570.01,-196.3 1570.01,-203.3"/>
</g>
<!-- RangersComponent -->
<g id="node15" class="node">
<title>RangersComponent</title>
<polygon fill="#ffffb3" stroke="black" points="1087.71,-160.8 960.29,-160.8 960.29,-124.8 1087.71,-124.8 1087.71,-160.8"/>
<text text-anchor="middle" x="1024" y="-138.6" font-family="Times,serif" font-size="14.00">RangersComponent</text>
</g>
<!-- RangersComponent&#45;&gt;AppModule -->
<g id="edge15" class="edge">
<title>RangersComponent&#45;&gt;AppModule</title>
<path fill="none" stroke="black" d="M1024,-161.1C1024,-179.07 1024,-203.8 1024,-203.8 1024,-203.8 1569.95,-203.8 1569.95,-203.8"/>
<polygon fill="black" stroke="black" points="1569.95,-207.3 1579.95,-203.8 1569.95,-200.3 1569.95,-207.3"/>
</g>
<!-- SettingsComponent -->
<g id="node16" class="node">
<title>SettingsComponent</title>
<polygon fill="#ffffb3" stroke="black" points="942.45,-160.8 815.55,-160.8 815.55,-124.8 942.45,-124.8 942.45,-160.8"/>
<text text-anchor="middle" x="879" y="-138.6" font-family="Times,serif" font-size="14.00">SettingsComponent</text>
</g>
<!-- SettingsComponent&#45;&gt;AppModule -->
<g id="edge16" class="edge">
<title>SettingsComponent&#45;&gt;AppModule</title>
<path fill="none" stroke="black" d="M879,-160.97C879,-179.89 879,-206.8 879,-206.8 879,-206.8 1570.19,-206.8 1570.19,-206.8"/>
<polygon fill="black" stroke="black" points="1570.19,-210.3 1580.19,-206.8 1570.19,-203.3 1570.19,-210.3"/>
</g>
<!-- TimePickerComponent -->
<g id="node17" class="node">
<title>TimePickerComponent</title>
<polygon fill="#ffffb3" stroke="black" points="797.14,-160.8 650.86,-160.8 650.86,-124.8 797.14,-124.8 797.14,-160.8"/>
<text text-anchor="middle" x="724" y="-138.6" font-family="Times,serif" font-size="14.00">TimePickerComponent</text>
</g>
<!-- TimePickerComponent&#45;&gt;AppModule -->
<g id="edge17" class="edge">
<title>TimePickerComponent&#45;&gt;AppModule</title>
<path fill="none" stroke="black" d="M724,-161.11C724,-180.95 724,-209.8 724,-209.8 724,-209.8 1570.19,-209.8 1570.19,-209.8"/>
<polygon fill="black" stroke="black" points="1570.19,-213.3 1580.19,-209.8 1570.19,-206.3 1570.19,-213.3"/>
</g>
<!-- X404Component -->
<g id="node18" class="node">
<title>X404Component</title>
<polygon fill="#ffffb3" stroke="black" points="632.44,-160.8 519.56,-160.8 519.56,-124.8 632.44,-124.8 632.44,-160.8"/>
<text text-anchor="middle" x="576" y="-138.6" font-family="Times,serif" font-size="14.00">X404Component</text>
</g>
<!-- X404Component&#45;&gt;AppModule -->
<g id="edge18" class="edge">
<title>X404Component&#45;&gt;AppModule</title>
<path fill="none" stroke="black" d="M576,-160.83C576,-181.57 576,-212.8 576,-212.8 576,-212.8 1570.03,-212.8 1570.03,-212.8"/>
<polygon fill="black" stroke="black" points="1570.03,-216.3 1580.03,-212.8 1570.03,-209.3 1570.03,-216.3"/>
</g>
<!-- AppComponent  -->
<g id="node23" class="node">
<title>AppComponent </title>
<polygon fill="#80b1d3" stroke="black" points="1676.44,-290.8 1567.56,-290.8 1567.56,-254.8 1676.44,-254.8 1676.44,-290.8"/>
<text text-anchor="middle" x="1622" y="-268.6" font-family="Times,serif" font-size="14.00">AppComponent </text>
</g>
<!-- AppModule&#45;&gt;AppComponent  -->
<g id="edge22" class="edge">
<title>AppModule&#45;&gt;AppComponent </title>
<path fill="none" stroke="black" stroke-dasharray="1,5" d="M1622,-225.91C1622,-225.91 1622,-244.79 1622,-244.79"/>
<polygon fill="black" stroke="black" points="1618.5,-244.79 1622,-254.79 1625.5,-244.79 1618.5,-244.79"/>
</g>
<!-- AppRoutingModule -->
<g id="node20" class="node">
<title>AppRoutingModule</title>
<polygon fill="#8dd3c7" stroke="black" points="496.28,-160.8 493.28,-164.8 472.28,-164.8 469.28,-160.8 367.72,-160.8 367.72,-124.8 496.28,-124.8 496.28,-160.8"/>
<text text-anchor="middle" x="432" y="-138.6" font-family="Times,serif" font-size="14.00">AppRoutingModule</text>
</g>
<!-- AppRoutingModule&#45;&gt;AppModule -->
<g id="edge19" class="edge">
<title>AppRoutingModule&#45;&gt;AppModule</title>
<path fill="none" stroke="black" d="M432,-161.09C432,-183.01 432,-216.8 432,-216.8 432,-216.8 1570,-216.8 1570,-216.8"/>
<polygon fill="black" stroke="black" points="1570,-220.3 1580,-216.8 1570,-213.3 1570,-220.3"/>
</g>
<!-- LazyModule -->
<g id="node21" class="node">
<title>LazyModule</title>
<polygon fill="#8dd3c7" stroke="black" points="349.53,-160.8 346.53,-164.8 325.53,-164.8 322.53,-160.8 262.47,-160.8 262.47,-124.8 349.53,-124.8 349.53,-160.8"/>
<text text-anchor="middle" x="306" y="-138.6" font-family="Times,serif" font-size="14.00">LazyModule</text>
</g>
<!-- LazyModule&#45;&gt;AppModule -->
<g id="edge20" class="edge">
<title>LazyModule&#45;&gt;AppModule</title>
<path fill="none" stroke="black" d="M306,-161.05C306,-183.82 306,-219.8 306,-219.8 306,-219.8 1570.07,-219.8 1570.07,-219.8"/>
<polygon fill="black" stroke="black" points="1570.07,-223.3 1580.07,-219.8 1570.07,-216.3 1570.07,-223.3"/>
</g>
<!-- AboutComponent  -->
<g id="node27" class="node">
<title>AboutComponent </title>
<polygon fill="#fb8072" stroke="black" points="143.83,-84.8 24.17,-84.8 24.17,-48.8 143.83,-48.8 143.83,-84.8"/>
<text text-anchor="middle" x="84" y="-62.6" font-family="Times,serif" font-size="14.00">AboutComponent </text>
</g>
<!-- LazyModule&#45;&gt;AboutComponent  -->
<g id="edge26" class="edge">
<title>LazyModule&#45;&gt;AboutComponent </title>
<path fill="none" stroke="black" stroke-dasharray="5,2" d="M274.93,-124.65C274.93,-112.53 274.93,-98.8 274.93,-98.8 274.93,-98.8 80.8,-98.8 80.8,-98.8 80.8,-98.8 80.8,-95.04 80.8,-95.04"/>
<polygon fill="black" stroke="black" points="84.3,-95.04 80.8,-85.04 77.3,-95.04 84.3,-95.04"/>
</g>
<!-- MaterialModule -->
<g id="node22" class="node">
<title>MaterialModule</title>
<polygon fill="#8dd3c7" stroke="black" points="244.47,-160.8 241.47,-164.8 220.47,-164.8 217.47,-160.8 137.53,-160.8 137.53,-124.8 244.47,-124.8 244.47,-160.8"/>
<text text-anchor="middle" x="191" y="-138.6" font-family="Times,serif" font-size="14.00">MaterialModule</text>
</g>
<!-- MaterialModule&#45;&gt;AppModule -->
<g id="edge21" class="edge">
<title>MaterialModule&#45;&gt;AppModule</title>
<path fill="none" stroke="black" d="M191,-160.95C191,-184.56 191,-222.8 191,-222.8 191,-222.8 1570.33,-222.8 1570.33,-222.8"/>
<polygon fill="black" stroke="black" points="1570.33,-226.3 1580.33,-222.8 1570.33,-219.3 1570.33,-226.3"/>
</g>
<!-- AboutComponent -->
<g id="node24" class="node">
<title>AboutComponent</title>
<polygon fill="#ffffb3" stroke="black" points="568.33,-84.8 451.67,-84.8 451.67,-48.8 568.33,-48.8 568.33,-84.8"/>
<text text-anchor="middle" x="510" y="-62.6" font-family="Times,serif" font-size="14.00">AboutComponent</text>
</g>
<!-- AboutComponent&#45;&gt;LazyModule -->
<g id="edge23" class="edge">
<title>AboutComponent&#45;&gt;LazyModule</title>
<path fill="none" stroke="black" d="M474.11,-84.84C474.11,-97.36 474.11,-111.8 474.11,-111.8 474.11,-111.8 341.29,-111.8 341.29,-111.8 341.29,-111.8 341.29,-114.77 341.29,-114.77"/>
<polygon fill="black" stroke="black" points="337.79,-114.77 341.29,-124.77 344.79,-114.77 337.79,-114.77"/>
</g>
<!-- LazyComponent -->
<g id="node25" class="node">
<title>LazyComponent</title>
<polygon fill="#ffffb3" stroke="black" points="433.81,-84.8 324.19,-84.8 324.19,-48.8 433.81,-48.8 433.81,-84.8"/>
<text text-anchor="middle" x="379" y="-62.6" font-family="Times,serif" font-size="14.00">LazyComponent</text>
</g>
<!-- LazyComponent&#45;&gt;LazyModule -->
<g id="edge24" class="edge">
<title>LazyComponent&#45;&gt;LazyModule</title>
<path fill="none" stroke="black" d="M332.82,-84.81C332.82,-84.81 332.82,-114.65 332.82,-114.65"/>
<polygon fill="black" stroke="black" points="329.32,-114.65 332.82,-124.65 336.32,-114.65 329.32,-114.65"/>
</g>
<!-- LazyRoutingModule -->
<g id="node26" class="node">
<title>LazyRoutingModule</title>
<polygon fill="#8dd3c7" stroke="black" points="300.15,-84.8 297.15,-88.8 276.15,-88.8 273.15,-84.8 167.85,-84.8 167.85,-48.8 300.15,-48.8 300.15,-84.8"/>
<text text-anchor="middle" x="234" y="-62.6" font-family="Times,serif" font-size="14.00">LazyRoutingModule</text>
</g>
<!-- LazyRoutingModule&#45;&gt;LazyModule -->
<g id="edge25" class="edge">
<title>LazyRoutingModule&#45;&gt;LazyModule</title>
<path fill="none" stroke="black" d="M287.63,-84.81C287.63,-84.81 287.63,-114.65 287.63,-114.65"/>
<polygon fill="black" stroke="black" points="284.13,-114.65 287.63,-124.65 291.13,-114.65 284.13,-114.65"/>
</g>
</g>
</svg>
