<?xml version="1.0" encoding="UTF-8" standalone="no"?>
<!DOCTYPE svg PUBLIC "-//W3C//DTD SVG 1.1//EN"
 "http://www.w3.org/Graphics/SVG/1.1/DTD/svg11.dtd">
<!-- Generated by graphviz version 5.0.0 (20220707.1540)
 -->
<!-- Title: dependencies Pages: 1 -->
<svg width="3275pt" height="323pt"
 viewBox="0.00 0.00 3275.00 322.80" xmlns="http://www.w3.org/2000/svg" xmlns:xlink="http://www.w3.org/1999/xlink">
<g id="graph0" class="graph" transform="scale(1 1) rotate(0) translate(4 318.8)">
<title>dependencies</title>
<polygon fill="white" stroke="transparent" points="-4,4 -4,-318.8 3271,-318.8 3271,4 -4,4"/>
<text text-anchor="middle" x="1633.5" y="-8.2" font-family="sans-serif" font-size="14.00">dependencies</text>
<g id="clust1" class="cluster">
<title>cluster_AppModule</title>
<polygon fill="none" stroke="black" stroke-dasharray="1,5" points="122,-108.8 122,-306.8 3259,-306.8 3259,-108.8 122,-108.8"/>
</g>
<g id="clust2" class="cluster">
<title>cluster_AppModule_declarations</title>
<polygon fill="none" stroke="black" points="512,-116.8 512,-168.8 3251,-168.8 3251,-116.8 512,-116.8"/>
</g>
<g id="clust23" class="cluster">
<title>cluster_AppModule_imports</title>
<polygon fill="none" stroke="black" points="130,-116.8 130,-168.8 504,-168.8 504,-116.8 130,-116.8"/>
</g>
<g id="clust25" class="cluster">
<title>cluster_AppModule_bootstrap</title>
<polygon fill="none" stroke="black" points="1640,-246.8 1640,-298.8 1764,-298.8 1764,-246.8 1640,-246.8"/>
</g>
<g id="clust33" class="cluster">
<title>cluster_LazyModule</title>
<polygon fill="none" stroke="black" stroke-dasharray="1,5" points="8,-32.8 8,-100.8 584,-100.8 584,-32.8 8,-32.8"/>
</g>
<g id="clust34" class="cluster">
<title>cluster_LazyModule_declarations</title>
<polygon fill="none" stroke="black" points="316,-40.8 316,-92.8 576,-92.8 576,-40.8 316,-40.8"/>
</g>
<g id="clust37" class="cluster">
<title>cluster_LazyModule_imports</title>
<polygon fill="none" stroke="black" points="160,-40.8 160,-92.8 308,-92.8 308,-40.8 160,-40.8"/>
</g>
<g id="clust38" class="cluster">
<title>cluster_LazyModule_exports</title>
<polygon fill="none" stroke="black" points="16,-40.8 16,-92.8 152,-92.8 152,-40.8 16,-40.8"/>
</g>
<!-- AlertsComponent -->
<g id="node1" class="node">
<title>AlertsComponent</title>
<polygon fill="#ffffb3" stroke="black" points="3242.55,-160.8 3127.45,-160.8 3127.45,-124.8 3242.55,-124.8 3242.55,-160.8"/>
<text text-anchor="middle" x="3185" y="-138.6" font-family="Times,serif" font-size="14.00">AlertsComponent</text>
</g>
<!-- AppModule -->
<g id="node21" class="node">
<title>AppModule</title>
<polygon fill="#8dd3c7" stroke="black" points="1743.66,-225.8 1740.66,-229.8 1719.66,-229.8 1716.66,-225.8 1660.34,-225.8 1660.34,-189.8 1743.66,-189.8 1743.66,-225.8"/>
<text text-anchor="middle" x="1702" y="-203.6" font-family="Times,serif" font-size="14.00">AppModule</text>
</g>
<!-- AlertsComponent&#45;&gt;AppModule -->
<g id="edge1" class="edge">
<title>AlertsComponent&#45;&gt;AppModule</title>
<path fill="none" stroke="black" d="M3185,-160.95C3185,-184.56 3185,-222.8 3185,-222.8 3185,-222.8 1753.99,-222.8 1753.99,-222.8"/>
<polygon fill="black" stroke="black" points="1753.99,-219.3 1743.99,-222.8 1753.99,-226.3 1753.99,-219.3"/>
</g>
<!-- AppComponent -->
<g id="node2" class="node">
<title>AppComponent</title>
<polygon fill="#ffffb3" stroke="black" points="3109.94,-160.8 3004.06,-160.8 3004.06,-124.8 3109.94,-124.8 3109.94,-160.8"/>
<text text-anchor="middle" x="3057" y="-138.6" font-family="Times,serif" font-size="14.00">AppComponent</text>
</g>
<!-- AppComponent&#45;&gt;AppModule -->
<g id="edge2" class="edge">
<title>AppComponent&#45;&gt;AppModule</title>
<path fill="none" stroke="black" d="M3057,-161.05C3057,-183.82 3057,-219.8 3057,-219.8 3057,-219.8 1753.66,-219.8 1753.66,-219.8"/>
<polygon fill="black" stroke="black" points="1753.66,-216.3 1743.66,-219.8 1753.66,-223.3 1753.66,-216.3"/>
</g>
<!-- ColorEditor -->
<g id="node3" class="node">
<title>ColorEditor</title>
<polygon fill="#ffffb3" stroke="black" points="2986.38,-160.8 2903.62,-160.8 2903.62,-124.8 2986.38,-124.8 2986.38,-160.8"/>
<text text-anchor="middle" x="2945" y="-138.6" font-family="Times,serif" font-size="14.00">ColorEditor</text>
</g>
<!-- ColorEditor&#45;&gt;AppModule -->
<g id="edge3" class="edge">
<title>ColorEditor&#45;&gt;AppModule</title>
<path fill="none" stroke="black" d="M2945,-161.09C2945,-183.01 2945,-216.8 2945,-216.8 2945,-216.8 1753.71,-216.8 1753.71,-216.8"/>
<polygon fill="black" stroke="black" points="1753.71,-213.3 1743.71,-216.8 1753.71,-220.3 1753.71,-213.3"/>
</g>
<!-- EntryComponent -->
<g id="node4" class="node">
<title>EntryComponent</title>
<polygon fill="#ffffb3" stroke="black" points="2885.44,-160.8 2772.56,-160.8 2772.56,-124.8 2885.44,-124.8 2885.44,-160.8"/>
<text text-anchor="middle" x="2829" y="-138.6" font-family="Times,serif" font-size="14.00">EntryComponent</text>
</g>
<!-- EntryComponent&#45;&gt;AppModule -->
<g id="edge4" class="edge">
<title>EntryComponent&#45;&gt;AppModule</title>
<path fill="none" stroke="black" d="M2829,-161.08C2829,-182.12 2829,-213.8 2829,-213.8 2829,-213.8 1753.78,-213.8 1753.78,-213.8"/>
<polygon fill="black" stroke="black" points="1753.78,-210.3 1743.78,-213.8 1753.78,-217.3 1753.78,-210.3"/>
</g>
<!-- FieldReportsComponent -->
<g id="node5" class="node">
<title>FieldReportsComponent</title>
<polygon fill="#ffffb3" stroke="black" points="2754.66,-160.8 2601.34,-160.8 2601.34,-124.8 2754.66,-124.8 2754.66,-160.8"/>
<text text-anchor="middle" x="2678" y="-138.6" font-family="Times,serif" font-size="14.00">FieldReportsComponent</text>
</g>
<!-- FieldReportsComponent&#45;&gt;AppModule -->
<g id="edge5" class="edge">
<title>FieldReportsComponent&#45;&gt;AppModule</title>
<path fill="none" stroke="black" d="M2678,-161.02C2678,-181.17 2678,-210.8 2678,-210.8 2678,-210.8 1753.94,-210.8 1753.94,-210.8"/>
<polygon fill="black" stroke="black" points="1753.94,-207.3 1743.94,-210.8 1753.94,-214.3 1753.94,-207.3"/>
</g>
<!-- FooterComponent -->
<g id="node6" class="node">
<title>FooterComponent</title>
<polygon fill="#ffffb3" stroke="black" points="2582.88,-160.8 2465.12,-160.8 2465.12,-124.8 2582.88,-124.8 2582.88,-160.8"/>
<text text-anchor="middle" x="2524" y="-138.6" font-family="Times,serif" font-size="14.00">FooterComponent</text>
</g>
<!-- FooterComponent&#45;&gt;AppModule -->
<g id="edge6" class="edge">
<title>FooterComponent&#45;&gt;AppModule</title>
<path fill="none" stroke="black" d="M2524,-160.91C2524,-180.14 2524,-207.8 2524,-207.8 2524,-207.8 1753.89,-207.8 1753.89,-207.8"/>
<polygon fill="black" stroke="black" points="1753.89,-204.3 1743.89,-207.8 1753.89,-211.3 1753.89,-204.3"/>
</g>
<!-- HeaderComponent -->
<g id="node7" class="node">
<title>HeaderComponent</title>
<polygon fill="#ffffb3" stroke="black" points="2446.75,-160.8 2325.25,-160.8 2325.25,-124.8 2446.75,-124.8 2446.75,-160.8"/>
<text text-anchor="middle" x="2386" y="-138.6" font-family="Times,serif" font-size="14.00">HeaderComponent</text>
</g>
<!-- HeaderComponent&#45;&gt;AppModule -->
<g id="edge7" class="edge">
<title>HeaderComponent&#45;&gt;AppModule</title>
<path fill="none" stroke="black" d="M2386,-161.07C2386,-179.36 2386,-204.8 2386,-204.8 2386,-204.8 1753.76,-204.8 1753.76,-204.8"/>
<polygon fill="black" stroke="black" points="1753.76,-201.3 1743.76,-204.8 1753.76,-208.3 1753.76,-201.3"/>
</g>
<!-- IconsComponent -->
<g id="node8" class="node">
<title>IconsComponent</title>
<polygon fill="#ffffb3" stroke="black" points="2306.66,-160.8 2195.34,-160.8 2195.34,-124.8 2306.66,-124.8 2306.66,-160.8"/>
<text text-anchor="middle" x="2251" y="-138.6" font-family="Times,serif" font-size="14.00">IconsComponent</text>
</g>
<!-- IconsComponent&#45;&gt;AppModule -->
<g id="edge8" class="edge">
<title>IconsComponent&#45;&gt;AppModule</title>
<path fill="none" stroke="black" d="M2251,-160.82C2251,-178.17 2251,-201.8 2251,-201.8 2251,-201.8 1753.71,-201.8 1753.71,-201.8"/>
<polygon fill="black" stroke="black" points="1753.71,-198.3 1743.71,-201.8 1753.71,-205.3 1753.71,-198.3"/>
</g>
<!-- LmapComponent -->
<g id="node9" class="node">
<title>LmapComponent</title>
<polygon fill="#ffffb3" stroke="black" points="2176.99,-160.8 2063.01,-160.8 2063.01,-124.8 2176.99,-124.8 2176.99,-160.8"/>
<text text-anchor="middle" x="2120" y="-138.6" font-family="Times,serif" font-size="14.00">LmapComponent</text>
</g>
<!-- LmapComponent&#45;&gt;AppModule -->
<g id="edge9" class="edge">
<title>LmapComponent&#45;&gt;AppModule</title>
<path fill="none" stroke="black" d="M2120,-160.83C2120,-177.2 2120,-198.8 2120,-198.8 2120,-198.8 1753.99,-198.8 1753.99,-198.8"/>
<polygon fill="black" stroke="black" points="1753.99,-195.3 1743.99,-198.8 1753.99,-202.3 1753.99,-195.3"/>
</g>
<!-- LocationComponent -->
<g id="node10" class="node">
<title>LocationComponent</title>
<polygon fill="#ffffb3" stroke="black" points="2044.59,-160.8 1913.41,-160.8 1913.41,-124.8 2044.59,-124.8 2044.59,-160.8"/>
<text text-anchor="middle" x="1979" y="-138.6" font-family="Times,serif" font-size="14.00">LocationComponent</text>
</g>
<!-- LocationComponent&#45;&gt;AppModule -->
<g id="edge10" class="edge">
<title>LocationComponent&#45;&gt;AppModule</title>
<path fill="none" stroke="black" d="M1979,-161.04C1979,-176.37 1979,-195.8 1979,-195.8 1979,-195.8 1753.77,-195.8 1753.77,-195.8"/>
<polygon fill="black" stroke="black" points="1753.77,-192.3 1743.77,-195.8 1753.77,-199.3 1753.77,-192.3"/>
</g>
<!-- LogComponent -->
<g id="node11" class="node">
<title>LogComponent</title>
<polygon fill="#ffffb3" stroke="black" points="1895.88,-160.8 1792.12,-160.8 1792.12,-124.8 1895.88,-124.8 1895.88,-160.8"/>
<text text-anchor="middle" x="1844" y="-138.6" font-family="Times,serif" font-size="14.00">LogComponent</text>
</g>
<!-- LogComponent&#45;&gt;AppModule -->
<g id="edge11" class="edge">
<title>LogComponent&#45;&gt;AppModule</title>
<path fill="none" stroke="black" d="M1844,-160.85C1844,-175.17 1844,-192.8 1844,-192.8 1844,-192.8 1753.84,-192.8 1753.84,-192.8"/>
<polygon fill="black" stroke="black" points="1753.84,-189.3 1743.84,-192.8 1753.84,-196.3 1753.84,-189.3"/>
</g>
<!-- MiniGMapComponent -->
<g id="node12" class="node">
<title>MiniGMapComponent</title>
<polygon fill="#ffffb3" stroke="black" points="1774.33,-160.8 1629.67,-160.8 1629.67,-124.8 1774.33,-124.8 1774.33,-160.8"/>
<text text-anchor="middle" x="1702" y="-138.6" font-family="Times,serif" font-size="14.00">MiniGMapComponent</text>
</g>
<!-- MiniGMapComponent&#45;&gt;AppModule -->
<g id="edge12" class="edge">
<title>MiniGMapComponent&#45;&gt;AppModule</title>
<path fill="none" stroke="black" d="M1702,-160.91C1702,-160.91 1702,-179.79 1702,-179.79"/>
<polygon fill="black" stroke="black" points="1698.5,-179.79 1702,-189.79 1705.5,-179.79 1698.5,-179.79"/>
</g>
<!-- MiniLMapComponent -->
<g id="node13" class="node">
<title>MiniLMapComponent</title>
<polygon fill="#ffffb3" stroke="black" points="1611.27,-160.8 1468.73,-160.8 1468.73,-124.8 1611.27,-124.8 1611.27,-160.8"/>
<text text-anchor="middle" x="1540" y="-138.6" font-family="Times,serif" font-size="14.00">MiniLMapComponent</text>
</g>
<!-- MiniLMapComponent&#45;&gt;AppModule -->
<g id="edge13" class="edge">
<title>MiniLMapComponent&#45;&gt;AppModule</title>
<path fill="none" stroke="black" d="M1540,-160.85C1540,-175.17 1540,-192.8 1540,-192.8 1540,-192.8 1650.28,-192.8 1650.28,-192.8"/>
<polygon fill="black" stroke="black" points="1650.28,-196.3 1660.28,-192.8 1650.28,-189.3 1650.28,-196.3"/>
</g>
<!-- MoodEditor -->
<g id="node14" class="node">
<title>MoodEditor</title>
<polygon fill="#ffffb3" stroke="black" points="1450.44,-160.8 1365.56,-160.8 1365.56,-124.8 1450.44,-124.8 1450.44,-160.8"/>
<text text-anchor="middle" x="1408" y="-138.6" font-family="Times,serif" font-size="14.00">MoodEditor</text>
</g>
<!-- MoodEditor&#45;&gt;AppModule -->
<g id="edge14" class="edge">
<title>MoodEditor&#45;&gt;AppModule</title>
<path fill="none" stroke="black" d="M1408,-161.04C1408,-176.37 1408,-195.8 1408,-195.8 1408,-195.8 1650.19,-195.8 1650.19,-195.8"/>
<polygon fill="black" stroke="black" points="1650.19,-199.3 1660.19,-195.8 1650.19,-192.3 1650.19,-199.3"/>
</g>
<!-- MoodRenderer -->
<g id="node15" class="node">
<title>MoodRenderer</title>
<polygon fill="#ffffb3" stroke="black" points="1347.25,-160.8 1246.75,-160.8 1246.75,-124.8 1347.25,-124.8 1347.25,-160.8"/>
<text text-anchor="middle" x="1297" y="-138.6" font-family="Times,serif" font-size="14.00">MoodRenderer</text>
</g>
<!-- MoodRenderer&#45;&gt;AppModule -->
<g id="edge15" class="edge">
<title>MoodRenderer&#45;&gt;AppModule</title>
<path fill="none" stroke="black" d="M1297,-160.83C1297,-177.2 1297,-198.8 1297,-198.8 1297,-198.8 1650.18,-198.8 1650.18,-198.8"/>
<polygon fill="black" stroke="black" points="1650.18,-202.3 1660.18,-198.8 1650.18,-195.3 1650.18,-202.3"/>
</g>
<!-- NavbarComponent -->
<g id="node16" class="node">
<title>NavbarComponent</title>
<polygon fill="#ffffb3" stroke="black" points="1228.03,-160.8 1105.97,-160.8 1105.97,-124.8 1228.03,-124.8 1228.03,-160.8"/>
<text text-anchor="middle" x="1167" y="-138.6" font-family="Times,serif" font-size="14.00">NavbarComponent</text>
</g>
<!-- NavbarComponent&#45;&gt;AppModule -->
<g id="edge16" class="edge">
<title>NavbarComponent&#45;&gt;AppModule</title>
<path fill="none" stroke="black" d="M1167,-160.82C1167,-178.17 1167,-201.8 1167,-201.8 1167,-201.8 1650.02,-201.8 1650.02,-201.8"/>
<polygon fill="black" stroke="black" points="1650.02,-205.3 1660.02,-201.8 1650.02,-198.3 1650.02,-205.3"/>
</g>
<!-- RangersComponent -->
<g id="node17" class="node">
<title>RangersComponent</title>
<polygon fill="#ffffb3" stroke="black" points="1087.71,-160.8 960.29,-160.8 960.29,-124.8 1087.71,-124.8 1087.71,-160.8"/>
<text text-anchor="middle" x="1024" y="-138.6" font-family="Times,serif" font-size="14.00">RangersComponent</text>
</g>
<!-- RangersComponent&#45;&gt;AppModule -->
<g id="edge17" class="edge">
<title>RangersComponent&#45;&gt;AppModule</title>
<path fill="none" stroke="black" d="M1024,-161.07C1024,-179.36 1024,-204.8 1024,-204.8 1024,-204.8 1650.1,-204.8 1650.1,-204.8"/>
<polygon fill="black" stroke="black" points="1650.1,-208.3 1660.1,-204.8 1650.1,-201.3 1650.1,-208.3"/>
</g>
<!-- SettingsComponent -->
<g id="node18" class="node">
<title>SettingsComponent</title>
<polygon fill="#ffffb3" stroke="black" points="942.45,-160.8 815.55,-160.8 815.55,-124.8 942.45,-124.8 942.45,-160.8"/>
<text text-anchor="middle" x="879" y="-138.6" font-family="Times,serif" font-size="14.00">SettingsComponent</text>
</g>
<!-- SettingsComponent&#45;&gt;AppModule -->
<g id="edge18" class="edge">
<title>SettingsComponent&#45;&gt;AppModule</title>
<path fill="none" stroke="black" d="M879,-160.91C879,-180.14 879,-207.8 879,-207.8 879,-207.8 1650.06,-207.8 1650.06,-207.8"/>
<polygon fill="black" stroke="black" points="1650.06,-211.3 1660.06,-207.8 1650.06,-204.3 1650.06,-211.3"/>
</g>
<!-- TimePickerComponent -->
<g id="node19" class="node">
<title>TimePickerComponent</title>
<polygon fill="#ffffb3" stroke="black" points="797.14,-160.8 650.86,-160.8 650.86,-124.8 797.14,-124.8 797.14,-160.8"/>
<text text-anchor="middle" x="724" y="-138.6" font-family="Times,serif" font-size="14.00">TimePickerComponent</text>
</g>
<!-- TimePickerComponent&#45;&gt;AppModule -->
<g id="edge19" class="edge">
<title>TimePickerComponent&#45;&gt;AppModule</title>
<path fill="none" stroke="black" d="M724,-161.02C724,-181.17 724,-210.8 724,-210.8 724,-210.8 1650.29,-210.8 1650.29,-210.8"/>
<polygon fill="black" stroke="black" points="1650.29,-214.3 1660.29,-210.8 1650.29,-207.3 1650.29,-214.3"/>
</g>
<!-- X404Component -->
<g id="node20" class="node">
<title>X404Component</title>
<polygon fill="#ffffb3" stroke="black" points="632.44,-160.8 519.56,-160.8 519.56,-124.8 632.44,-124.8 632.44,-160.8"/>
<text text-anchor="middle" x="576" y="-138.6" font-family="Times,serif" font-size="14.00">X404Component</text>
</g>
<!-- X404Component&#45;&gt;AppModule -->
<g id="edge20" class="edge">
<title>X404Component&#45;&gt;AppModule</title>
<path fill="none" stroke="black" d="M576,-161.08C576,-182.12 576,-213.8 576,-213.8 576,-213.8 1650.25,-213.8 1650.25,-213.8"/>
<polygon fill="black" stroke="black" points="1650.25,-217.3 1660.25,-213.8 1650.25,-210.3 1650.25,-217.3"/>
</g>
<!-- AppComponent  -->
<g id="node25" class="node">
<title>AppComponent </title>
<polygon fill="#80b1d3" stroke="black" points="1756.44,-290.8 1647.56,-290.8 1647.56,-254.8 1756.44,-254.8 1756.44,-290.8"/>
<text text-anchor="middle" x="1702" y="-268.6" font-family="Times,serif" font-size="14.00">AppComponent </text>
</g>
<!-- AppModule&#45;&gt;AppComponent  -->
<g id="edge24" class="edge">
<title>AppModule&#45;&gt;AppComponent </title>
<path fill="none" stroke="black" stroke-dasharray="1,5" d="M1702,-225.91C1702,-225.91 1702,-244.79 1702,-244.79"/>
<polygon fill="black" stroke="black" points="1698.5,-244.79 1702,-254.79 1705.5,-244.79 1698.5,-244.79"/>
</g>
<!-- AppRoutingModule -->
<g id="node22" class="node">
<title>AppRoutingModule</title>
<polygon fill="#8dd3c7" stroke="black" points="496.28,-160.8 493.28,-164.8 472.28,-164.8 469.28,-160.8 367.72,-160.8 367.72,-124.8 496.28,-124.8 496.28,-160.8"/>
<text text-anchor="middle" x="432" y="-138.6" font-family="Times,serif" font-size="14.00">AppRoutingModule</text>
</g>
<!-- AppRoutingModule&#45;&gt;AppModule -->
<g id="edge21" class="edge">
<title>AppRoutingModule&#45;&gt;AppModule</title>
<path fill="none" stroke="black" d="M432,-161.09C432,-183.01 432,-216.8 432,-216.8 432,-216.8 1650.11,-216.8 1650.11,-216.8"/>
<polygon fill="black" stroke="black" points="1650.11,-220.3 1660.11,-216.8 1650.11,-213.3 1650.11,-220.3"/>
</g>
<!-- LazyModule -->
<g id="node23" class="node">
<title>LazyModule</title>
<polygon fill="#8dd3c7" stroke="black" points="349.53,-160.8 346.53,-164.8 325.53,-164.8 322.53,-160.8 262.47,-160.8 262.47,-124.8 349.53,-124.8 349.53,-160.8"/>
<text text-anchor="middle" x="306" y="-138.6" font-family="Times,serif" font-size="14.00">LazyModule</text>
</g>
<!-- LazyModule&#45;&gt;AppModule -->
<g id="edge22" class="edge">
<title>LazyModule&#45;&gt;AppModule</title>
<path fill="none" stroke="black" d="M306,-161.05C306,-183.82 306,-219.8 306,-219.8 306,-219.8 1650.22,-219.8 1650.22,-219.8"/>
<polygon fill="black" stroke="black" points="1650.22,-223.3 1660.22,-219.8 1650.22,-216.3 1650.22,-223.3"/>
</g>
<!-- AboutComponent  -->
<g id="node29" class="node">
<title>AboutComponent </title>
<polygon fill="#fb8072" stroke="black" points="143.83,-84.8 24.17,-84.8 24.17,-48.8 143.83,-48.8 143.83,-84.8"/>
<text text-anchor="middle" x="84" y="-62.6" font-family="Times,serif" font-size="14.00">AboutComponent </text>
</g>
<!-- LazyModule&#45;&gt;AboutComponent  -->
<g id="edge28" class="edge">
<title>LazyModule&#45;&gt;AboutComponent </title>
<path fill="none" stroke="black" stroke-dasharray="5,2" d="M274.93,-124.65C274.93,-112.53 274.93,-98.8 274.93,-98.8 274.93,-98.8 80.8,-98.8 80.8,-98.8 80.8,-98.8 80.8,-95.04 80.8,-95.04"/>
<polygon fill="black" stroke="black" points="84.3,-95.04 80.8,-85.04 77.3,-95.04 84.3,-95.04"/>
</g>
<!-- MaterialModule -->
<g id="node24" class="node">
<title>MaterialModule</title>
<polygon fill="#8dd3c7" stroke="black" points="244.47,-160.8 241.47,-164.8 220.47,-164.8 217.47,-160.8 137.53,-160.8 137.53,-124.8 244.47,-124.8 244.47,-160.8"/>
<text text-anchor="middle" x="191" y="-138.6" font-family="Times,serif" font-size="14.00">MaterialModule</text>
</g>
<!-- MaterialModule&#45;&gt;AppModule -->
<g id="edge23" class="edge">
<title>MaterialModule&#45;&gt;AppModule</title>
<path fill="none" stroke="black" d="M191,-160.95C191,-184.56 191,-222.8 191,-222.8 191,-222.8 1650.01,-222.8 1650.01,-222.8"/>
<polygon fill="black" stroke="black" points="1650.01,-226.3 1660.01,-222.8 1650.01,-219.3 1650.01,-226.3"/>
</g>
<!-- AboutComponent -->
<g id="node26" class="node">
<title>AboutComponent</title>
<polygon fill="#ffffb3" stroke="black" points="568.33,-84.8 451.67,-84.8 451.67,-48.8 568.33,-48.8 568.33,-84.8"/>
<text text-anchor="middle" x="510" y="-62.6" font-family="Times,serif" font-size="14.00">AboutComponent</text>
</g>
<!-- AboutComponent&#45;&gt;LazyModule -->
<g id="edge25" class="edge">
<title>AboutComponent&#45;&gt;LazyModule</title>
<path fill="none" stroke="black" d="M474.11,-84.84C474.11,-97.36 474.11,-111.8 474.11,-111.8 474.11,-111.8 341.29,-111.8 341.29,-111.8 341.29,-111.8 341.29,-114.77 341.29,-114.77"/>
<polygon fill="black" stroke="black" points="337.79,-114.77 341.29,-124.77 344.79,-114.77 337.79,-114.77"/>
</g>
<!-- LazyComponent -->
<g id="node27" class="node">
<title>LazyComponent</title>
<polygon fill="#ffffb3" stroke="black" points="433.81,-84.8 324.19,-84.8 324.19,-48.8 433.81,-48.8 433.81,-84.8"/>
<text text-anchor="middle" x="379" y="-62.6" font-family="Times,serif" font-size="14.00">LazyComponent</text>
</g>
<!-- LazyComponent&#45;&gt;LazyModule -->
<g id="edge26" class="edge">
<title>LazyComponent&#45;&gt;LazyModule</title>
<path fill="none" stroke="black" d="M332.82,-84.81C332.82,-84.81 332.82,-114.65 332.82,-114.65"/>
<polygon fill="black" stroke="black" points="329.32,-114.65 332.82,-124.65 336.32,-114.65 329.32,-114.65"/>
</g>
<!-- LazyRoutingModule -->
<g id="node28" class="node">
<title>LazyRoutingModule</title>
<polygon fill="#8dd3c7" stroke="black" points="300.15,-84.8 297.15,-88.8 276.15,-88.8 273.15,-84.8 167.85,-84.8 167.85,-48.8 300.15,-48.8 300.15,-84.8"/>
<text text-anchor="middle" x="234" y="-62.6" font-family="Times,serif" font-size="14.00">LazyRoutingModule</text>
</g>
<!-- LazyRoutingModule&#45;&gt;LazyModule -->
<g id="edge27" class="edge">
<title>LazyRoutingModule&#45;&gt;LazyModule</title>
<path fill="none" stroke="black" d="M287.63,-84.81C287.63,-84.81 287.63,-114.65 287.63,-114.65"/>
<polygon fill="black" stroke="black" points="284.13,-114.65 287.63,-124.65 291.13,-114.65 284.13,-114.65"/>
</g>
</g>
</svg>
